<?xml version="1.0" encoding="UTF-8" standalone="no"?>
<!DOCTYPE svg PUBLIC "-//W3C//DTD SVG 1.1//EN"
 "http://www.w3.org/Graphics/SVG/1.1/DTD/svg11.dtd">
<!-- Generated by graphviz version 2.38.0 (20140413.2041)
 -->
<!-- Title: snakemake_dag Pages: 1 -->
<svg width="633pt" height="404pt"
 viewBox="0.00 0.00 633.00 404.00" xmlns="http://www.w3.org/2000/svg" xmlns:xlink="http://www.w3.org/1999/xlink">
<g id="graph0" class="graph" transform="scale(1 1) rotate(0) translate(4 400)">
<title>snakemake_dag</title>
<polygon fill="white" stroke="none" points="-4,4 -4,-400 629,-400 629,4 -4,4"/>
<!-- 0 -->
<g id="node1" class="node"><title>0</title>
<path fill="none" stroke="#56d8d8" stroke-width="2" d="M297.5,-36C297.5,-36 267.5,-36 267.5,-36 261.5,-36 255.5,-30 255.5,-24 255.5,-24 255.5,-12 255.5,-12 255.5,-6 261.5,-0 267.5,-0 267.5,-0 297.5,-0 297.5,-0 303.5,-0 309.5,-6 309.5,-12 309.5,-12 309.5,-24 309.5,-24 309.5,-30 303.5,-36 297.5,-36"/>
<text text-anchor="middle" x="282.5" y="-15.5" font-family="sans" font-size="10.00">all</text>
</g>
<!-- 1 -->
<g id="node2" class="node"><title>1</title>
<path fill="none" stroke="#569ad8" stroke-width="2" d="M326.5,-108C326.5,-108 238.5,-108 238.5,-108 232.5,-108 226.5,-102 226.5,-96 226.5,-96 226.5,-84 226.5,-84 226.5,-78 232.5,-72 238.5,-72 238.5,-72 326.5,-72 326.5,-72 332.5,-72 338.5,-78 338.5,-84 338.5,-84 338.5,-96 338.5,-96 338.5,-102 332.5,-108 326.5,-108"/>
<text text-anchor="middle" x="282.5" y="-87.5" font-family="sans" font-size="10.00">generate_summary</text>
</g>
<!-- 1&#45;&gt;0 -->
<g id="edge1" class="edge"><title>1&#45;&gt;0</title>
<path fill="none" stroke="grey" stroke-width="2" d="M282.5,-71.6966C282.5,-63.9827 282.5,-54.7125 282.5,-46.1124"/>
<polygon fill="grey" stroke="grey" stroke-width="2" points="286,-46.1043 282.5,-36.1043 279,-46.1044 286,-46.1043"/>
</g>
<!-- 2 -->
<g id="node3" class="node"><title>2</title>
<path fill="none" stroke="#59d856" stroke-width="2" d="M188.5,-180C188.5,-180 84.5,-180 84.5,-180 78.5,-180 72.5,-174 72.5,-168 72.5,-168 72.5,-156 72.5,-156 72.5,-150 78.5,-144 84.5,-144 84.5,-144 188.5,-144 188.5,-144 194.5,-144 200.5,-150 200.5,-156 200.5,-156 200.5,-168 200.5,-168 200.5,-174 194.5,-180 188.5,-180"/>
<text text-anchor="middle" x="136.5" y="-159.5" font-family="sans" font-size="10.00">vulcanspot_annotation</text>
</g>
<!-- 2&#45;&gt;1 -->
<g id="edge2" class="edge"><title>2&#45;&gt;1</title>
<path fill="none" stroke="grey" stroke-width="2" d="M172.216,-143.876C191.997,-134.392 216.772,-122.513 237.826,-112.419"/>
<polygon fill="grey" stroke="grey" stroke-width="2" points="239.396,-115.548 246.9,-108.068 236.37,-109.236 239.396,-115.548"/>
</g>
<!-- 3 -->
<g id="node4" class="node"><title>3</title>
<path fill="none" stroke="#59d856" stroke-width="2" d="M334.5,-180C334.5,-180 230.5,-180 230.5,-180 224.5,-180 218.5,-174 218.5,-168 218.5,-168 218.5,-156 218.5,-156 218.5,-150 224.5,-144 230.5,-144 230.5,-144 334.5,-144 334.5,-144 340.5,-144 346.5,-150 346.5,-156 346.5,-156 346.5,-168 346.5,-168 346.5,-174 340.5,-180 334.5,-180"/>
<text text-anchor="middle" x="282.5" y="-159.5" font-family="sans" font-size="10.00">vulcanspot_annotation</text>
</g>
<!-- 3&#45;&gt;1 -->
<g id="edge3" class="edge"><title>3&#45;&gt;1</title>
<path fill="none" stroke="grey" stroke-width="2" d="M282.5,-143.697C282.5,-135.983 282.5,-126.712 282.5,-118.112"/>
<polygon fill="grey" stroke="grey" stroke-width="2" points="286,-118.104 282.5,-108.104 279,-118.104 286,-118.104"/>
</g>
<!-- 4 -->
<g id="node5" class="node"><title>4</title>
<path fill="none" stroke="#59d856" stroke-width="2" d="M480.5,-180C480.5,-180 376.5,-180 376.5,-180 370.5,-180 364.5,-174 364.5,-168 364.5,-168 364.5,-156 364.5,-156 364.5,-150 370.5,-144 376.5,-144 376.5,-144 480.5,-144 480.5,-144 486.5,-144 492.5,-150 492.5,-156 492.5,-156 492.5,-168 492.5,-168 492.5,-174 486.5,-180 480.5,-180"/>
<text text-anchor="middle" x="428.5" y="-159.5" font-family="sans" font-size="10.00">vulcanspot_annotation</text>
</g>
<!-- 4&#45;&gt;1 -->
<g id="edge4" class="edge"><title>4&#45;&gt;1</title>
<path fill="none" stroke="grey" stroke-width="2" d="M392.784,-143.876C373.003,-134.392 348.228,-122.513 327.174,-112.419"/>
<polygon fill="grey" stroke="grey" stroke-width="2" points="328.63,-109.236 318.1,-108.068 325.604,-115.548 328.63,-109.236"/>
</g>
<!-- 5 -->
<g id="node6" class="node"><title>5</title>
<path fill="none" stroke="#97d856" stroke-width="2" d="M111,-252C111,-252 12,-252 12,-252 6,-252 0,-246 0,-240 0,-240 0,-228 0,-228 0,-222 6,-216 12,-216 12,-216 111,-216 111,-216 117,-216 123,-222 123,-228 123,-228 123,-240 123,-240 123,-246 117,-252 111,-252"/>
<text text-anchor="middle" x="61.5" y="-231.5" font-family="sans" font-size="10.00">generate_cases_table</text>
</g>
<!-- 5&#45;&gt;2 -->
<g id="edge5" class="edge"><title>5&#45;&gt;2</title>
<path fill="none" stroke="grey" stroke-width="2" d="M80.0393,-215.697C89.3033,-207.05 100.662,-196.449 110.757,-187.027"/>
<polygon fill="grey" stroke="grey" stroke-width="2" points="113.251,-189.486 118.174,-180.104 108.475,-184.369 113.251,-189.486"/>
</g>
<!-- 6 -->
<g id="node7" class="node"><title>6</title>
<path fill="none" stroke="#d6d856" stroke-width="2" stroke-dasharray="5,2" d="M267.5,-252C267.5,-252 153.5,-252 153.5,-252 147.5,-252 141.5,-246 141.5,-240 141.5,-240 141.5,-228 141.5,-228 141.5,-222 147.5,-216 153.5,-216 153.5,-216 267.5,-216 267.5,-216 273.5,-216 279.5,-222 279.5,-228 279.5,-228 279.5,-240 279.5,-240 279.5,-246 273.5,-252 267.5,-252"/>
<text text-anchor="middle" x="210.5" y="-231.5" font-family="sans" font-size="10.00">rebuild_vulcan_database</text>
</g>
<!-- 6&#45;&gt;2 -->
<g id="edge6" class="edge"><title>6&#45;&gt;2</title>
<path fill="none" stroke="grey" stroke-width="2" d="M192.208,-215.697C183.067,-207.05 171.86,-196.449 161.9,-187.027"/>
<polygon fill="grey" stroke="grey" stroke-width="2" points="164.252,-184.434 154.582,-180.104 159.441,-189.519 164.252,-184.434"/>
</g>
<!-- 6&#45;&gt;3 -->
<g id="edge8" class="edge"><title>6&#45;&gt;3</title>
<path fill="none" stroke="grey" stroke-width="2" d="M228.298,-215.697C237.104,-207.135 247.882,-196.656 257.501,-187.304"/>
<polygon fill="grey" stroke="grey" stroke-width="2" points="260.177,-189.585 264.907,-180.104 255.297,-184.566 260.177,-189.585"/>
</g>
<!-- 6&#45;&gt;4 -->
<g id="edge10" class="edge"><title>6&#45;&gt;4</title>
<path fill="none" stroke="grey" stroke-width="2" d="M263.55,-215.966C294.274,-206.1 333.136,-193.622 365.42,-183.255"/>
<polygon fill="grey" stroke="grey" stroke-width="2" points="366.761,-186.501 375.212,-180.111 364.621,-179.836 366.761,-186.501"/>
</g>
<!-- 7 -->
<g id="node8" class="node"><title>7</title>
<path fill="none" stroke="#97d856" stroke-width="2" d="M409,-252C409,-252 310,-252 310,-252 304,-252 298,-246 298,-240 298,-240 298,-228 298,-228 298,-222 304,-216 310,-216 310,-216 409,-216 409,-216 415,-216 421,-222 421,-228 421,-228 421,-240 421,-240 421,-246 415,-252 409,-252"/>
<text text-anchor="middle" x="359.5" y="-231.5" font-family="sans" font-size="10.00">generate_cases_table</text>
</g>
<!-- 7&#45;&gt;3 -->
<g id="edge7" class="edge"><title>7&#45;&gt;3</title>
<path fill="none" stroke="grey" stroke-width="2" d="M340.466,-215.697C330.955,-207.05 319.293,-196.449 308.93,-187.027"/>
<polygon fill="grey" stroke="grey" stroke-width="2" points="311.069,-184.241 301.315,-180.104 306.36,-189.421 311.069,-184.241"/>
</g>
<!-- 8 -->
<g id="node9" class="node"><title>8</title>
<path fill="none" stroke="#97d856" stroke-width="2" d="M550,-252C550,-252 451,-252 451,-252 445,-252 439,-246 439,-240 439,-240 439,-228 439,-228 439,-222 445,-216 451,-216 451,-216 550,-216 550,-216 556,-216 562,-222 562,-228 562,-228 562,-240 562,-240 562,-246 556,-252 550,-252"/>
<text text-anchor="middle" x="500.5" y="-231.5" font-family="sans" font-size="10.00">generate_cases_table</text>
</g>
<!-- 8&#45;&gt;4 -->
<g id="edge9" class="edge"><title>8&#45;&gt;4</title>
<path fill="none" stroke="grey" stroke-width="2" d="M482.702,-215.697C473.896,-207.135 463.118,-196.656 453.499,-187.304"/>
<polygon fill="grey" stroke="grey" stroke-width="2" points="455.703,-184.566 446.093,-180.104 450.823,-189.585 455.703,-184.566"/>
</g>
<!-- 9 -->
<g id="node10" class="node"><title>9</title>
<path fill="none" stroke="#56d89a" stroke-width="2" d="M84,-324C84,-324 19,-324 19,-324 13,-324 7,-318 7,-312 7,-312 7,-300 7,-300 7,-294 13,-288 19,-288 19,-288 84,-288 84,-288 90,-288 96,-294 96,-300 96,-300 96,-312 96,-312 96,-318 90,-324 84,-324"/>
<text text-anchor="middle" x="51.5" y="-309" font-family="sans" font-size="10.00">filter_maf_files</text>
<text text-anchor="middle" x="51.5" y="-298" font-family="sans" font-size="10.00">project: ACC</text>
</g>
<!-- 9&#45;&gt;5 -->
<g id="edge11" class="edge"><title>9&#45;&gt;5</title>
<path fill="none" stroke="grey" stroke-width="2" d="M53.9719,-287.697C55.0739,-279.983 56.3982,-270.712 57.6268,-262.112"/>
<polygon fill="grey" stroke="grey" stroke-width="2" points="61.107,-262.499 59.0565,-252.104 54.1774,-261.509 61.107,-262.499"/>
</g>
<!-- 10 -->
<g id="node11" class="node"><title>10</title>
<path fill="none" stroke="#d85656" stroke-width="2" d="M189,-324C189,-324 126,-324 126,-324 120,-324 114,-318 114,-312 114,-312 114,-300 114,-300 114,-294 120,-288 126,-288 126,-288 189,-288 189,-288 195,-288 201,-294 201,-300 201,-300 201,-312 201,-312 201,-318 195,-324 189,-324"/>
<text text-anchor="middle" x="157.5" y="-309" font-family="sans" font-size="10.00">filter_cnv_files</text>
<text text-anchor="middle" x="157.5" y="-298" font-family="sans" font-size="10.00">project: ACC</text>
</g>
<!-- 10&#45;&gt;5 -->
<g id="edge12" class="edge"><title>10&#45;&gt;5</title>
<path fill="none" stroke="grey" stroke-width="2" d="M133.77,-287.697C121.563,-278.796 106.515,-267.823 93.3156,-258.199"/>
<polygon fill="grey" stroke="grey" stroke-width="2" points="95.0996,-255.168 84.9574,-252.104 90.9753,-260.824 95.0996,-255.168"/>
</g>
<!-- 11 -->
<g id="node12" class="node"><title>11</title>
<path fill="none" stroke="#56d89a" stroke-width="2" d="M296,-324C296,-324 231,-324 231,-324 225,-324 219,-318 219,-312 219,-312 219,-300 219,-300 219,-294 225,-288 231,-288 231,-288 296,-288 296,-288 302,-288 308,-294 308,-300 308,-300 308,-312 308,-312 308,-318 302,-324 296,-324"/>
<text text-anchor="middle" x="263.5" y="-309" font-family="sans" font-size="10.00">filter_maf_files</text>
<text text-anchor="middle" x="263.5" y="-298" font-family="sans" font-size="10.00">project: UCS</text>
</g>
<!-- 11&#45;&gt;7 -->
<g id="edge13" class="edge"><title>11&#45;&gt;7</title>
<path fill="none" stroke="grey" stroke-width="2" d="M287.23,-287.697C299.437,-278.796 314.485,-267.823 327.684,-258.199"/>
<polygon fill="grey" stroke="grey" stroke-width="2" points="330.025,-260.824 336.043,-252.104 325.9,-255.168 330.025,-260.824"/>
</g>
<!-- 12 -->
<g id="node13" class="node"><title>12</title>
<path fill="none" stroke="#d85656" stroke-width="2" d="M401,-324C401,-324 338,-324 338,-324 332,-324 326,-318 326,-312 326,-312 326,-300 326,-300 326,-294 332,-288 338,-288 338,-288 401,-288 401,-288 407,-288 413,-294 413,-300 413,-300 413,-312 413,-312 413,-318 407,-324 401,-324"/>
<text text-anchor="middle" x="369.5" y="-309" font-family="sans" font-size="10.00">filter_cnv_files</text>
<text text-anchor="middle" x="369.5" y="-298" font-family="sans" font-size="10.00">project: UCS</text>
</g>
<!-- 12&#45;&gt;7 -->
<g id="edge14" class="edge"><title>12&#45;&gt;7</title>
<path fill="none" stroke="grey" stroke-width="2" d="M367.028,-287.697C365.926,-279.983 364.602,-270.712 363.373,-262.112"/>
<polygon fill="grey" stroke="grey" stroke-width="2" points="366.823,-261.509 361.943,-252.104 359.893,-262.499 366.823,-261.509"/>
</g>
<!-- 13 -->
<g id="node14" class="node"><title>13</title>
<path fill="none" stroke="#56d89a" stroke-width="2" d="M508,-324C508,-324 443,-324 443,-324 437,-324 431,-318 431,-312 431,-312 431,-300 431,-300 431,-294 437,-288 443,-288 443,-288 508,-288 508,-288 514,-288 520,-294 520,-300 520,-300 520,-312 520,-312 520,-318 514,-324 508,-324"/>
<text text-anchor="middle" x="475.5" y="-309" font-family="sans" font-size="10.00">filter_maf_files</text>
<text text-anchor="middle" x="475.5" y="-298" font-family="sans" font-size="10.00">project: UVM</text>
</g>
<!-- 13&#45;&gt;8 -->
<g id="edge15" class="edge"><title>13&#45;&gt;8</title>
<path fill="none" stroke="grey" stroke-width="2" d="M481.68,-287.697C484.495,-279.813 487.891,-270.304 491.019,-261.546"/>
<polygon fill="grey" stroke="grey" stroke-width="2" points="494.324,-262.699 494.391,-252.104 487.732,-260.345 494.324,-262.699"/>
</g>
<!-- 14 -->
<g id="node15" class="node"><title>14</title>
<path fill="none" stroke="#d85656" stroke-width="2" d="M613,-324C613,-324 550,-324 550,-324 544,-324 538,-318 538,-312 538,-312 538,-300 538,-300 538,-294 544,-288 550,-288 550,-288 613,-288 613,-288 619,-288 625,-294 625,-300 625,-300 625,-312 625,-312 625,-318 619,-324 613,-324"/>
<text text-anchor="middle" x="581.5" y="-309" font-family="sans" font-size="10.00">filter_cnv_files</text>
<text text-anchor="middle" x="581.5" y="-298" font-family="sans" font-size="10.00">project: UVM</text>
</g>
<!-- 14&#45;&gt;8 -->
<g id="edge16" class="edge"><title>14&#45;&gt;8</title>
<path fill="none" stroke="grey" stroke-width="2" d="M561.478,-287.697C551.374,-278.965 538.964,-268.24 527.982,-258.75"/>
<polygon fill="grey" stroke="grey" stroke-width="2" points="530.147,-255.995 520.292,-252.104 525.57,-261.291 530.147,-255.995"/>
</g>
<!-- 15 -->
<g id="node16" class="node"><title>15</title>
<path fill="none" stroke="#d89556" stroke-width="2" stroke-dasharray="5,2" d="M436.5,-396C436.5,-396 302.5,-396 302.5,-396 296.5,-396 290.5,-390 290.5,-384 290.5,-384 290.5,-372 290.5,-372 290.5,-366 296.5,-360 302.5,-360 302.5,-360 436.5,-360 436.5,-360 442.5,-360 448.5,-366 448.5,-372 448.5,-372 448.5,-384 448.5,-384 448.5,-390 442.5,-396 436.5,-396"/>
<text text-anchor="middle" x="369.5" y="-375.5" font-family="sans" font-size="10.00">rebuild_snp_array_dictionary</text>
</g>
<!-- 15&#45;&gt;10 -->
<g id="edge17" class="edge"><title>15&#45;&gt;10</title>
<path fill="none" stroke="grey" stroke-width="2" d="M317.91,-359.966C285.477,-349.256 243.719,-335.469 210.94,-324.645"/>
<polygon fill="grey" stroke="grey" stroke-width="2" points="211.668,-321.2 201.075,-321.388 209.474,-327.847 211.668,-321.2"/>
</g>
<!-- 15&#45;&gt;12 -->
<g id="edge18" class="edge"><title>15&#45;&gt;12</title>
<path fill="none" stroke="grey" stroke-width="2" d="M369.5,-359.697C369.5,-351.983 369.5,-342.712 369.5,-334.112"/>
<polygon fill="grey" stroke="grey" stroke-width="2" points="373,-334.104 369.5,-324.104 366,-334.104 373,-334.104"/>
</g>
<!-- 15&#45;&gt;14 -->
<g id="edge19" class="edge"><title>15&#45;&gt;14</title>
<path fill="none" stroke="grey" stroke-width="2" d="M421.09,-359.966C453.523,-349.256 495.281,-335.469 528.06,-324.645"/>
<polygon fill="grey" stroke="grey" stroke-width="2" points="529.526,-327.847 537.925,-321.388 527.332,-321.2 529.526,-327.847"/>
</g>
</g>
</svg>
