<?xml version="1.0" encoding="UTF-8" standalone="no"?>
<!DOCTYPE svg PUBLIC "-//W3C//DTD SVG 1.1//EN"
 "http://www.w3.org/Graphics/SVG/1.1/DTD/svg11.dtd">
<!-- Generated by graphviz version 2.38.0 (20140413.2041)
 -->
<!-- Title: snakemake_dag Pages: 1 -->
<svg width="633pt" height="332pt"
 viewBox="0.00 0.00 633.00 332.00" xmlns="http://www.w3.org/2000/svg" xmlns:xlink="http://www.w3.org/1999/xlink">
<g id="graph0" class="graph" transform="scale(1 1) rotate(0) translate(4 328)">
<title>snakemake_dag</title>
<polygon fill="white" stroke="none" points="-4,4 -4,-328 629,-328 629,4 -4,4"/>
<!-- 0 -->
<g id="node1" class="node"><title>0</title>
<path fill="none" stroke="#78d856" stroke-width="2" d="M297.5,-36C297.5,-36 267.5,-36 267.5,-36 261.5,-36 255.5,-30 255.5,-24 255.5,-24 255.5,-12 255.5,-12 255.5,-6 261.5,-0 267.5,-0 267.5,-0 297.5,-0 297.5,-0 303.5,-0 309.5,-6 309.5,-12 309.5,-12 309.5,-24 309.5,-24 309.5,-30 303.5,-36 297.5,-36"/>
<text text-anchor="middle" x="282.5" y="-15.5" font-family="sans" font-size="10.00">all</text>
</g>
<!-- 1 -->
<g id="node2" class="node"><title>1</title>
<path fill="none" stroke="#d8a456" stroke-width="2" d="M188.5,-108C188.5,-108 84.5,-108 84.5,-108 78.5,-108 72.5,-102 72.5,-96 72.5,-96 72.5,-84 72.5,-84 72.5,-78 78.5,-72 84.5,-72 84.5,-72 188.5,-72 188.5,-72 194.5,-72 200.5,-78 200.5,-84 200.5,-84 200.5,-96 200.5,-96 200.5,-102 194.5,-108 188.5,-108"/>
<text text-anchor="middle" x="136.5" y="-87.5" font-family="sans" font-size="10.00">vulcanspot_annotation</text>
</g>
<!-- 1&#45;&gt;0 -->
<g id="edge1" class="edge"><title>1&#45;&gt;0</title>
<path fill="none" stroke="grey" stroke-width="2" d="M172.216,-71.8761C194.671,-61.1096 223.561,-47.2583 246.139,-36.4334"/>
<polygon fill="grey" stroke="grey" stroke-width="2" points="247.887,-39.4767 255.391,-31.9973 244.861,-33.1646 247.887,-39.4767"/>
</g>
<!-- 2 -->
<g id="node3" class="node"><title>2</title>
<path fill="none" stroke="#d8a456" stroke-width="2" d="M334.5,-108C334.5,-108 230.5,-108 230.5,-108 224.5,-108 218.5,-102 218.5,-96 218.5,-96 218.5,-84 218.5,-84 218.5,-78 224.5,-72 230.5,-72 230.5,-72 334.5,-72 334.5,-72 340.5,-72 346.5,-78 346.5,-84 346.5,-84 346.5,-96 346.5,-96 346.5,-102 340.5,-108 334.5,-108"/>
<text text-anchor="middle" x="282.5" y="-87.5" font-family="sans" font-size="10.00">vulcanspot_annotation</text>
</g>
<!-- 2&#45;&gt;0 -->
<g id="edge2" class="edge"><title>2&#45;&gt;0</title>
<path fill="none" stroke="grey" stroke-width="2" d="M282.5,-71.6966C282.5,-63.9827 282.5,-54.7125 282.5,-46.1124"/>
<polygon fill="grey" stroke="grey" stroke-width="2" points="286,-46.1043 282.5,-36.1043 279,-46.1044 286,-46.1043"/>
</g>
<!-- 3 -->
<g id="node4" class="node"><title>3</title>
<path fill="none" stroke="#d8a456" stroke-width="2" d="M480.5,-108C480.5,-108 376.5,-108 376.5,-108 370.5,-108 364.5,-102 364.5,-96 364.5,-96 364.5,-84 364.5,-84 364.5,-78 370.5,-72 376.5,-72 376.5,-72 480.5,-72 480.5,-72 486.5,-72 492.5,-78 492.5,-84 492.5,-84 492.5,-96 492.5,-96 492.5,-102 486.5,-108 480.5,-108"/>
<text text-anchor="middle" x="428.5" y="-87.5" font-family="sans" font-size="10.00">vulcanspot_annotation</text>
</g>
<!-- 3&#45;&gt;0 -->
<g id="edge3" class="edge"><title>3&#45;&gt;0</title>
<path fill="none" stroke="grey" stroke-width="2" d="M392.784,-71.8761C370.329,-61.1096 341.439,-47.2583 318.861,-36.4334"/>
<polygon fill="grey" stroke="grey" stroke-width="2" points="320.139,-33.1646 309.609,-31.9973 317.113,-39.4767 320.139,-33.1646"/>
</g>
<!-- 4 -->
<g id="node5" class="node"><title>4</title>
<path fill="none" stroke="#56a2d8" stroke-width="2" d="M111,-180C111,-180 12,-180 12,-180 6,-180 0,-174 0,-168 0,-168 0,-156 0,-156 0,-150 6,-144 12,-144 12,-144 111,-144 111,-144 117,-144 123,-150 123,-156 123,-156 123,-168 123,-168 123,-174 117,-180 111,-180"/>
<text text-anchor="middle" x="61.5" y="-159.5" font-family="sans" font-size="10.00">generate_cases_table</text>
</g>
<!-- 4&#45;&gt;1 -->
<g id="edge4" class="edge"><title>4&#45;&gt;1</title>
<path fill="none" stroke="grey" stroke-width="2" d="M80.0393,-143.697C89.3033,-135.05 100.662,-124.449 110.757,-115.027"/>
<polygon fill="grey" stroke="grey" stroke-width="2" points="113.251,-117.486 118.174,-108.104 108.475,-112.369 113.251,-117.486"/>
</g>
<!-- 5 -->
<g id="node6" class="node"><title>5</title>
<path fill="none" stroke="#56d8c9" stroke-width="2" stroke-dasharray="5,2" d="M267.5,-180C267.5,-180 153.5,-180 153.5,-180 147.5,-180 141.5,-174 141.5,-168 141.5,-168 141.5,-156 141.5,-156 141.5,-150 147.5,-144 153.5,-144 153.5,-144 267.5,-144 267.5,-144 273.5,-144 279.5,-150 279.5,-156 279.5,-156 279.5,-168 279.5,-168 279.5,-174 273.5,-180 267.5,-180"/>
<text text-anchor="middle" x="210.5" y="-159.5" font-family="sans" font-size="10.00">rebuild_vulcan_database</text>
</g>
<!-- 5&#45;&gt;1 -->
<g id="edge5" class="edge"><title>5&#45;&gt;1</title>
<path fill="none" stroke="grey" stroke-width="2" d="M192.208,-143.697C183.067,-135.05 171.86,-124.449 161.9,-115.027"/>
<polygon fill="grey" stroke="grey" stroke-width="2" points="164.252,-112.434 154.582,-108.104 159.441,-117.519 164.252,-112.434"/>
</g>
<!-- 5&#45;&gt;2 -->
<g id="edge7" class="edge"><title>5&#45;&gt;2</title>
<path fill="none" stroke="grey" stroke-width="2" d="M228.298,-143.697C237.104,-135.135 247.882,-124.656 257.501,-115.304"/>
<polygon fill="grey" stroke="grey" stroke-width="2" points="260.177,-117.585 264.907,-108.104 255.297,-112.566 260.177,-117.585"/>
</g>
<!-- 5&#45;&gt;3 -->
<g id="edge9" class="edge"><title>5&#45;&gt;3</title>
<path fill="none" stroke="grey" stroke-width="2" d="M263.55,-143.966C294.274,-134.1 333.136,-121.622 365.42,-111.255"/>
<polygon fill="grey" stroke="grey" stroke-width="2" points="366.761,-114.501 375.212,-108.111 364.621,-107.836 366.761,-114.501"/>
</g>
<!-- 6 -->
<g id="node7" class="node"><title>6</title>
<path fill="none" stroke="#56a2d8" stroke-width="2" d="M409,-180C409,-180 310,-180 310,-180 304,-180 298,-174 298,-168 298,-168 298,-156 298,-156 298,-150 304,-144 310,-144 310,-144 409,-144 409,-144 415,-144 421,-150 421,-156 421,-156 421,-168 421,-168 421,-174 415,-180 409,-180"/>
<text text-anchor="middle" x="359.5" y="-159.5" font-family="sans" font-size="10.00">generate_cases_table</text>
</g>
<!-- 6&#45;&gt;2 -->
<g id="edge6" class="edge"><title>6&#45;&gt;2</title>
<path fill="none" stroke="grey" stroke-width="2" d="M340.466,-143.697C330.955,-135.05 319.293,-124.449 308.93,-115.027"/>
<polygon fill="grey" stroke="grey" stroke-width="2" points="311.069,-112.241 301.315,-108.104 306.36,-117.421 311.069,-112.241"/>
</g>
<!-- 7 -->
<g id="node8" class="node"><title>7</title>
<path fill="none" stroke="#56a2d8" stroke-width="2" d="M550,-180C550,-180 451,-180 451,-180 445,-180 439,-174 439,-168 439,-168 439,-156 439,-156 439,-150 445,-144 451,-144 451,-144 550,-144 550,-144 556,-144 562,-150 562,-156 562,-156 562,-168 562,-168 562,-174 556,-180 550,-180"/>
<text text-anchor="middle" x="500.5" y="-159.5" font-family="sans" font-size="10.00">generate_cases_table</text>
</g>
<!-- 7&#45;&gt;3 -->
<g id="edge8" class="edge"><title>7&#45;&gt;3</title>
<path fill="none" stroke="grey" stroke-width="2" d="M482.702,-143.697C473.896,-135.135 463.118,-124.656 453.499,-115.304"/>
<polygon fill="grey" stroke="grey" stroke-width="2" points="455.703,-112.566 446.093,-108.104 450.823,-117.585 455.703,-112.566"/>
</g>
<!-- 8 -->
<g id="node9" class="node"><title>8</title>
<path fill="none" stroke="#d85656" stroke-width="2" d="M84,-252C84,-252 19,-252 19,-252 13,-252 7,-246 7,-240 7,-240 7,-228 7,-228 7,-222 13,-216 19,-216 19,-216 84,-216 84,-216 90,-216 96,-222 96,-228 96,-228 96,-240 96,-240 96,-246 90,-252 84,-252"/>
<text text-anchor="middle" x="51.5" y="-237" font-family="sans" font-size="10.00">filter_maf_files</text>
<text text-anchor="middle" x="51.5" y="-226" font-family="sans" font-size="10.00">project: UCS</text>
</g>
<!-- 8&#45;&gt;4 -->
<g id="edge10" class="edge"><title>8&#45;&gt;4</title>
<path fill="none" stroke="grey" stroke-width="2" d="M53.9719,-215.697C55.0739,-207.983 56.3982,-198.712 57.6268,-190.112"/>
<polygon fill="grey" stroke="grey" stroke-width="2" points="61.107,-190.499 59.0565,-180.104 54.1774,-189.509 61.107,-190.499"/>
</g>
<!-- 9 -->
<g id="node10" class="node"><title>9</title>
<path fill="none" stroke="#c6d856" stroke-width="2" d="M189,-252C189,-252 126,-252 126,-252 120,-252 114,-246 114,-240 114,-240 114,-228 114,-228 114,-222 120,-216 126,-216 126,-216 189,-216 189,-216 195,-216 201,-222 201,-228 201,-228 201,-240 201,-240 201,-246 195,-252 189,-252"/>
<text text-anchor="middle" x="157.5" y="-237" font-family="sans" font-size="10.00">filter_cnv_files</text>
<text text-anchor="middle" x="157.5" y="-226" font-family="sans" font-size="10.00">project: UCS</text>
</g>
<!-- 9&#45;&gt;4 -->
<g id="edge11" class="edge"><title>9&#45;&gt;4</title>
<path fill="none" stroke="grey" stroke-width="2" d="M133.77,-215.697C121.563,-206.796 106.515,-195.823 93.3156,-186.199"/>
<polygon fill="grey" stroke="grey" stroke-width="2" points="95.0996,-183.168 84.9574,-180.104 90.9753,-188.824 95.0996,-183.168"/>
</g>
<!-- 10 -->
<g id="node11" class="node"><title>10</title>
<path fill="none" stroke="#d85656" stroke-width="2" d="M296,-252C296,-252 231,-252 231,-252 225,-252 219,-246 219,-240 219,-240 219,-228 219,-228 219,-222 225,-216 231,-216 231,-216 296,-216 296,-216 302,-216 308,-222 308,-228 308,-228 308,-240 308,-240 308,-246 302,-252 296,-252"/>
<text text-anchor="middle" x="263.5" y="-237" font-family="sans" font-size="10.00">filter_maf_files</text>
<text text-anchor="middle" x="263.5" y="-226" font-family="sans" font-size="10.00">project: ACC</text>
</g>
<!-- 10&#45;&gt;6 -->
<g id="edge12" class="edge"><title>10&#45;&gt;6</title>
<path fill="none" stroke="grey" stroke-width="2" d="M287.23,-215.697C299.437,-206.796 314.485,-195.823 327.684,-186.199"/>
<polygon fill="grey" stroke="grey" stroke-width="2" points="330.025,-188.824 336.043,-180.104 325.9,-183.168 330.025,-188.824"/>
</g>
<!-- 11 -->
<g id="node12" class="node"><title>11</title>
<path fill="none" stroke="#c6d856" stroke-width="2" d="M401,-252C401,-252 338,-252 338,-252 332,-252 326,-246 326,-240 326,-240 326,-228 326,-228 326,-222 332,-216 338,-216 338,-216 401,-216 401,-216 407,-216 413,-222 413,-228 413,-228 413,-240 413,-240 413,-246 407,-252 401,-252"/>
<text text-anchor="middle" x="369.5" y="-237" font-family="sans" font-size="10.00">filter_cnv_files</text>
<text text-anchor="middle" x="369.5" y="-226" font-family="sans" font-size="10.00">project: ACC</text>
</g>
<!-- 11&#45;&gt;6 -->
<g id="edge13" class="edge"><title>11&#45;&gt;6</title>
<path fill="none" stroke="grey" stroke-width="2" d="M367.028,-215.697C365.926,-207.983 364.602,-198.712 363.373,-190.112"/>
<polygon fill="grey" stroke="grey" stroke-width="2" points="366.823,-189.509 361.943,-180.104 359.893,-190.499 366.823,-189.509"/>
</g>
<!-- 12 -->
<g id="node13" class="node"><title>12</title>
<path fill="none" stroke="#d85656" stroke-width="2" d="M508,-252C508,-252 443,-252 443,-252 437,-252 431,-246 431,-240 431,-240 431,-228 431,-228 431,-222 437,-216 443,-216 443,-216 508,-216 508,-216 514,-216 520,-222 520,-228 520,-228 520,-240 520,-240 520,-246 514,-252 508,-252"/>
<text text-anchor="middle" x="475.5" y="-237" font-family="sans" font-size="10.00">filter_maf_files</text>
<text text-anchor="middle" x="475.5" y="-226" font-family="sans" font-size="10.00">project: UVM</text>
</g>
<!-- 12&#45;&gt;7 -->
<g id="edge14" class="edge"><title>12&#45;&gt;7</title>
<path fill="none" stroke="grey" stroke-width="2" d="M481.68,-215.697C484.495,-207.813 487.891,-198.304 491.019,-189.546"/>
<polygon fill="grey" stroke="grey" stroke-width="2" points="494.324,-190.699 494.391,-180.104 487.732,-188.345 494.324,-190.699"/>
</g>
<!-- 13 -->
<g id="node14" class="node"><title>13</title>
<path fill="none" stroke="#c6d856" stroke-width="2" d="M613,-252C613,-252 550,-252 550,-252 544,-252 538,-246 538,-240 538,-240 538,-228 538,-228 538,-222 544,-216 550,-216 550,-216 613,-216 613,-216 619,-216 625,-222 625,-228 625,-228 625,-240 625,-240 625,-246 619,-252 613,-252"/>
<text text-anchor="middle" x="581.5" y="-237" font-family="sans" font-size="10.00">filter_cnv_files</text>
<text text-anchor="middle" x="581.5" y="-226" font-family="sans" font-size="10.00">project: UVM</text>
</g>
<!-- 13&#45;&gt;7 -->
<g id="edge15" class="edge"><title>13&#45;&gt;7</title>
<path fill="none" stroke="grey" stroke-width="2" d="M561.478,-215.697C551.374,-206.965 538.964,-196.24 527.982,-186.75"/>
<polygon fill="grey" stroke="grey" stroke-width="2" points="530.147,-183.995 520.292,-180.104 525.57,-189.291 530.147,-183.995"/>
</g>
<!-- 14 -->
<g id="node15" class="node"><title>14</title>
<path fill="none" stroke="#56d87b" stroke-width="2" stroke-dasharray="5,2" d="M436.5,-324C436.5,-324 302.5,-324 302.5,-324 296.5,-324 290.5,-318 290.5,-312 290.5,-312 290.5,-300 290.5,-300 290.5,-294 296.5,-288 302.5,-288 302.5,-288 436.5,-288 436.5,-288 442.5,-288 448.5,-294 448.5,-300 448.5,-300 448.5,-312 448.5,-312 448.5,-318 442.5,-324 436.5,-324"/>
<text text-anchor="middle" x="369.5" y="-303.5" font-family="sans" font-size="10.00">rebuild_snp_array_dictionary</text>
</g>
<!-- 14&#45;&gt;9 -->
<g id="edge16" class="edge"><title>14&#45;&gt;9</title>
<path fill="none" stroke="grey" stroke-width="2" d="M317.91,-287.966C285.477,-277.256 243.719,-263.469 210.94,-252.645"/>
<polygon fill="grey" stroke="grey" stroke-width="2" points="211.668,-249.2 201.075,-249.388 209.474,-255.847 211.668,-249.2"/>
</g>
<!-- 14&#45;&gt;11 -->
<g id="edge17" class="edge"><title>14&#45;&gt;11</title>
<path fill="none" stroke="grey" stroke-width="2" d="M369.5,-287.697C369.5,-279.983 369.5,-270.712 369.5,-262.112"/>
<polygon fill="grey" stroke="grey" stroke-width="2" points="373,-262.104 369.5,-252.104 366,-262.104 373,-262.104"/>
</g>
<!-- 14&#45;&gt;13 -->
<g id="edge18" class="edge"><title>14&#45;&gt;13</title>
<path fill="none" stroke="grey" stroke-width="2" d="M421.09,-287.966C453.523,-277.256 495.281,-263.469 528.06,-252.645"/>
<polygon fill="grey" stroke="grey" stroke-width="2" points="529.526,-255.847 537.925,-249.388 527.332,-249.2 529.526,-255.847"/>
</g>
</g>
</svg>
