<?xml version="1.0" encoding="UTF-8" standalone="no"?>
<!DOCTYPE svg PUBLIC "-//W3C//DTD SVG 1.1//EN"
 "http://www.w3.org/Graphics/SVG/1.1/DTD/svg11.dtd">
<!-- Generated by graphviz version 2.38.0 (20140413.2041)
 -->
<!-- Title: snakemake_dag Pages: 1 -->
<svg width="429pt" height="476pt"
 viewBox="0.00 0.00 429.00 476.00" xmlns="http://www.w3.org/2000/svg" xmlns:xlink="http://www.w3.org/1999/xlink">
<g id="graph0" class="graph" transform="scale(1 1) rotate(0) translate(4 472)">
<title>snakemake_dag</title>
<polygon fill="white" stroke="none" points="-4,4 -4,-472 425,-472 425,4 -4,4"/>
<!-- 0 -->
<g id="node1" class="node"><title>0</title>
<path fill="none" stroke="#56c9d8" stroke-width="2" stroke-dasharray="5,2" d="M225.5,-36C225.5,-36 195.5,-36 195.5,-36 189.5,-36 183.5,-30 183.5,-24 183.5,-24 183.5,-12 183.5,-12 183.5,-6 189.5,-0 195.5,-0 195.5,-0 225.5,-0 225.5,-0 231.5,-0 237.5,-6 237.5,-12 237.5,-12 237.5,-24 237.5,-24 237.5,-30 231.5,-36 225.5,-36"/>
<text text-anchor="middle" x="210.5" y="-15.5" font-family="sans" font-size="10.00">all</text>
</g>
<!-- 1 -->
<g id="node2" class="node"><title>1</title>
<path fill="none" stroke="#56d873" stroke-width="2" stroke-dasharray="5,2" d="M269,-108C269,-108 152,-108 152,-108 146,-108 140,-102 140,-96 140,-96 140,-84 140,-84 140,-78 146,-72 152,-72 152,-72 269,-72 269,-72 275,-72 281,-78 281,-84 281,-84 281,-96 281,-96 281,-102 275,-108 269,-108"/>
<text text-anchor="middle" x="210.5" y="-87.5" font-family="sans" font-size="10.00">generate_summary_plots</text>
</g>
<!-- 1&#45;&gt;0 -->
<g id="edge1" class="edge"><title>1&#45;&gt;0</title>
<path fill="none" stroke="grey" stroke-width="2" d="M210.5,-71.6966C210.5,-63.9827 210.5,-54.7125 210.5,-46.1124"/>
<polygon fill="grey" stroke="grey" stroke-width="2" points="214,-46.1043 210.5,-36.1043 207,-46.1044 214,-46.1043"/>
</g>
<!-- 2 -->
<g id="node3" class="node"><title>2</title>
<path fill="none" stroke="#d8cb56" stroke-width="2" stroke-dasharray="5,2" d="M254.5,-180C254.5,-180 166.5,-180 166.5,-180 160.5,-180 154.5,-174 154.5,-168 154.5,-168 154.5,-156 154.5,-156 154.5,-150 160.5,-144 166.5,-144 166.5,-144 254.5,-144 254.5,-144 260.5,-144 266.5,-150 266.5,-156 266.5,-156 266.5,-168 266.5,-168 266.5,-174 260.5,-180 254.5,-180"/>
<text text-anchor="middle" x="210.5" y="-159.5" font-family="sans" font-size="10.00">generate_summary</text>
</g>
<!-- 2&#45;&gt;1 -->
<g id="edge2" class="edge"><title>2&#45;&gt;1</title>
<path fill="none" stroke="grey" stroke-width="2" d="M210.5,-143.697C210.5,-135.983 210.5,-126.712 210.5,-118.112"/>
<polygon fill="grey" stroke="grey" stroke-width="2" points="214,-118.104 210.5,-108.104 207,-118.104 214,-118.104"/>
</g>
<!-- 3 -->
<g id="node4" class="node"><title>3</title>
<path fill="none" stroke="#d85656" stroke-width="2" stroke-dasharray="5,2" d="M189.5,-252C189.5,-252 85.5,-252 85.5,-252 79.5,-252 73.5,-246 73.5,-240 73.5,-240 73.5,-228 73.5,-228 73.5,-222 79.5,-216 85.5,-216 85.5,-216 189.5,-216 189.5,-216 195.5,-216 201.5,-222 201.5,-228 201.5,-228 201.5,-240 201.5,-240 201.5,-246 195.5,-252 189.5,-252"/>
<text text-anchor="middle" x="137.5" y="-231.5" font-family="sans" font-size="10.00">vulcanspot_annotation</text>
</g>
<!-- 3&#45;&gt;2 -->
<g id="edge3" class="edge"><title>3&#45;&gt;2</title>
<path fill="none" stroke="grey" stroke-width="2" d="M155.545,-215.697C164.562,-207.05 175.618,-196.449 185.443,-187.027"/>
<polygon fill="grey" stroke="grey" stroke-width="2" points="187.867,-189.552 192.663,-180.104 183.022,-184.499 187.867,-189.552"/>
</g>
<!-- 4 -->
<g id="node5" class="node"><title>4</title>
<path fill="none" stroke="#d85656" stroke-width="2" stroke-dasharray="5,2" d="M335.5,-252C335.5,-252 231.5,-252 231.5,-252 225.5,-252 219.5,-246 219.5,-240 219.5,-240 219.5,-228 219.5,-228 219.5,-222 225.5,-216 231.5,-216 231.5,-216 335.5,-216 335.5,-216 341.5,-216 347.5,-222 347.5,-228 347.5,-228 347.5,-240 347.5,-240 347.5,-246 341.5,-252 335.5,-252"/>
<text text-anchor="middle" x="283.5" y="-231.5" font-family="sans" font-size="10.00">vulcanspot_annotation</text>
</g>
<!-- 4&#45;&gt;2 -->
<g id="edge4" class="edge"><title>4&#45;&gt;2</title>
<path fill="none" stroke="grey" stroke-width="2" d="M265.455,-215.697C256.438,-207.05 245.382,-196.449 235.557,-187.027"/>
<polygon fill="grey" stroke="grey" stroke-width="2" points="237.978,-184.499 228.337,-180.104 233.133,-189.552 237.978,-184.499"/>
</g>
<!-- 5 -->
<g id="node6" class="node"><title>5</title>
<path fill="none" stroke="#d88d56" stroke-width="2" stroke-dasharray="5,2" d="M111,-324C111,-324 12,-324 12,-324 6,-324 0,-318 0,-312 0,-312 0,-300 0,-300 0,-294 6,-288 12,-288 12,-288 111,-288 111,-288 117,-288 123,-294 123,-300 123,-300 123,-312 123,-312 123,-318 117,-324 111,-324"/>
<text text-anchor="middle" x="61.5" y="-303.5" font-family="sans" font-size="10.00">generate_cases_table</text>
</g>
<!-- 5&#45;&gt;3 -->
<g id="edge5" class="edge"><title>5&#45;&gt;3</title>
<path fill="none" stroke="grey" stroke-width="2" d="M80.2865,-287.697C89.674,-279.05 101.184,-268.449 111.413,-259.027"/>
<polygon fill="grey" stroke="grey" stroke-width="2" points="113.945,-261.454 118.93,-252.104 109.203,-256.305 113.945,-261.454"/>
</g>
<!-- 6 -->
<g id="node7" class="node"><title>6</title>
<path fill="none" stroke="#5692d8" stroke-width="2" stroke-dasharray="5,2" d="M267.5,-324C267.5,-324 153.5,-324 153.5,-324 147.5,-324 141.5,-318 141.5,-312 141.5,-312 141.5,-300 141.5,-300 141.5,-294 147.5,-288 153.5,-288 153.5,-288 267.5,-288 267.5,-288 273.5,-288 279.5,-294 279.5,-300 279.5,-300 279.5,-312 279.5,-312 279.5,-318 273.5,-324 267.5,-324"/>
<text text-anchor="middle" x="210.5" y="-303.5" font-family="sans" font-size="10.00">rebuild_vulcan_database</text>
</g>
<!-- 6&#45;&gt;3 -->
<g id="edge6" class="edge"><title>6&#45;&gt;3</title>
<path fill="none" stroke="grey" stroke-width="2" d="M192.455,-287.697C183.438,-279.05 172.382,-268.449 162.557,-259.027"/>
<polygon fill="grey" stroke="grey" stroke-width="2" points="164.978,-256.499 155.337,-252.104 160.133,-261.552 164.978,-256.499"/>
</g>
<!-- 6&#45;&gt;4 -->
<g id="edge8" class="edge"><title>6&#45;&gt;4</title>
<path fill="none" stroke="grey" stroke-width="2" d="M228.545,-287.697C237.562,-279.05 248.618,-268.449 258.443,-259.027"/>
<polygon fill="grey" stroke="grey" stroke-width="2" points="260.867,-261.552 265.663,-252.104 256.022,-256.499 260.867,-261.552"/>
</g>
<!-- 7 -->
<g id="node8" class="node"><title>7</title>
<path fill="none" stroke="#d88d56" stroke-width="2" stroke-dasharray="5,2" d="M409,-324C409,-324 310,-324 310,-324 304,-324 298,-318 298,-312 298,-312 298,-300 298,-300 298,-294 304,-288 310,-288 310,-288 409,-288 409,-288 415,-288 421,-294 421,-300 421,-300 421,-312 421,-312 421,-318 415,-324 409,-324"/>
<text text-anchor="middle" x="359.5" y="-303.5" font-family="sans" font-size="10.00">generate_cases_table</text>
</g>
<!-- 7&#45;&gt;4 -->
<g id="edge7" class="edge"><title>7&#45;&gt;4</title>
<path fill="none" stroke="grey" stroke-width="2" d="M340.713,-287.697C331.326,-279.05 319.816,-268.449 309.587,-259.027"/>
<polygon fill="grey" stroke="grey" stroke-width="2" points="311.797,-256.305 302.07,-252.104 307.055,-261.454 311.797,-256.305"/>
</g>
<!-- 8 -->
<g id="node9" class="node"><title>8</title>
<path fill="none" stroke="#afd856" stroke-width="2" stroke-dasharray="5,2" d="M85,-396C85,-396 20,-396 20,-396 14,-396 8,-390 8,-384 8,-384 8,-372 8,-372 8,-366 14,-360 20,-360 20,-360 85,-360 85,-360 91,-360 97,-366 97,-372 97,-372 97,-384 97,-384 97,-390 91,-396 85,-396"/>
<text text-anchor="middle" x="52.5" y="-381" font-family="sans" font-size="10.00">filter_maf_files</text>
<text text-anchor="middle" x="52.5" y="-370" font-family="sans" font-size="10.00">project: ACC</text>
</g>
<!-- 8&#45;&gt;5 -->
<g id="edge9" class="edge"><title>8&#45;&gt;5</title>
<path fill="none" stroke="grey" stroke-width="2" d="M54.7247,-359.697C55.7165,-351.983 56.9084,-342.712 58.0141,-334.112"/>
<polygon fill="grey" stroke="grey" stroke-width="2" points="61.497,-334.469 59.3009,-324.104 54.5541,-333.576 61.497,-334.469"/>
</g>
<!-- 9 -->
<g id="node10" class="node"><title>9</title>
<path fill="none" stroke="#56d8a9" stroke-width="2" stroke-dasharray="5,2" d="M190,-396C190,-396 127,-396 127,-396 121,-396 115,-390 115,-384 115,-384 115,-372 115,-372 115,-366 121,-360 127,-360 127,-360 190,-360 190,-360 196,-360 202,-366 202,-372 202,-372 202,-384 202,-384 202,-390 196,-396 190,-396"/>
<text text-anchor="middle" x="158.5" y="-381" font-family="sans" font-size="10.00">filter_cnv_files</text>
<text text-anchor="middle" x="158.5" y="-370" font-family="sans" font-size="10.00">project: ACC</text>
</g>
<!-- 9&#45;&gt;5 -->
<g id="edge10" class="edge"><title>9&#45;&gt;5</title>
<path fill="none" stroke="grey" stroke-width="2" d="M134.522,-359.697C122.189,-350.796 106.984,-339.823 93.647,-330.199"/>
<polygon fill="grey" stroke="grey" stroke-width="2" points="95.3589,-327.118 85.2017,-324.104 91.2626,-332.794 95.3589,-327.118"/>
</g>
<!-- 10 -->
<g id="node11" class="node"><title>10</title>
<path fill="none" stroke="#afd856" stroke-width="2" stroke-dasharray="5,2" d="M402,-396C402,-396 337,-396 337,-396 331,-396 325,-390 325,-384 325,-384 325,-372 325,-372 325,-366 331,-360 337,-360 337,-360 402,-360 402,-360 408,-360 414,-366 414,-372 414,-372 414,-384 414,-384 414,-390 408,-396 402,-396"/>
<text text-anchor="middle" x="369.5" y="-381" font-family="sans" font-size="10.00">filter_maf_files</text>
<text text-anchor="middle" x="369.5" y="-370" font-family="sans" font-size="10.00">project: BLCA</text>
</g>
<!-- 10&#45;&gt;7 -->
<g id="edge11" class="edge"><title>10&#45;&gt;7</title>
<path fill="none" stroke="grey" stroke-width="2" d="M367.028,-359.697C365.926,-351.983 364.602,-342.712 363.373,-334.112"/>
<polygon fill="grey" stroke="grey" stroke-width="2" points="366.823,-333.509 361.943,-324.104 359.893,-334.499 366.823,-333.509"/>
</g>
<!-- 11 -->
<g id="node12" class="node"><title>11</title>
<path fill="none" stroke="#56d8a9" stroke-width="2" stroke-dasharray="5,2" d="M295,-396C295,-396 232,-396 232,-396 226,-396 220,-390 220,-384 220,-384 220,-372 220,-372 220,-366 226,-360 232,-360 232,-360 295,-360 295,-360 301,-360 307,-366 307,-372 307,-372 307,-384 307,-384 307,-390 301,-396 295,-396"/>
<text text-anchor="middle" x="263.5" y="-381" font-family="sans" font-size="10.00">filter_cnv_files</text>
<text text-anchor="middle" x="263.5" y="-370" font-family="sans" font-size="10.00">project: BLCA</text>
</g>
<!-- 11&#45;&gt;7 -->
<g id="edge12" class="edge"><title>11&#45;&gt;7</title>
<path fill="none" stroke="grey" stroke-width="2" d="M287.23,-359.697C299.437,-350.796 314.485,-339.823 327.684,-330.199"/>
<polygon fill="grey" stroke="grey" stroke-width="2" points="330.025,-332.824 336.043,-324.104 325.9,-327.168 330.025,-332.824"/>
</g>
<!-- 12 -->
<g id="node13" class="node"><title>12</title>
<path fill="none" stroke="#70d856" stroke-width="2" stroke-dasharray="5,2" d="M277.5,-468C277.5,-468 143.5,-468 143.5,-468 137.5,-468 131.5,-462 131.5,-456 131.5,-456 131.5,-444 131.5,-444 131.5,-438 137.5,-432 143.5,-432 143.5,-432 277.5,-432 277.5,-432 283.5,-432 289.5,-438 289.5,-444 289.5,-444 289.5,-456 289.5,-456 289.5,-462 283.5,-468 277.5,-468"/>
<text text-anchor="middle" x="210.5" y="-447.5" font-family="sans" font-size="10.00">rebuild_snp_array_dictionary</text>
</g>
<!-- 12&#45;&gt;9 -->
<g id="edge13" class="edge"><title>12&#45;&gt;9</title>
<path fill="none" stroke="grey" stroke-width="2" d="M197.646,-431.697C191.475,-423.389 183.963,-413.277 177.176,-404.141"/>
<polygon fill="grey" stroke="grey" stroke-width="2" points="179.979,-402.045 171.206,-396.104 174.36,-406.219 179.979,-402.045"/>
</g>
<!-- 12&#45;&gt;11 -->
<g id="edge14" class="edge"><title>12&#45;&gt;11</title>
<path fill="none" stroke="grey" stroke-width="2" d="M223.601,-431.697C229.891,-423.389 237.547,-413.277 244.465,-404.141"/>
<polygon fill="grey" stroke="grey" stroke-width="2" points="247.304,-406.19 250.55,-396.104 241.723,-401.964 247.304,-406.19"/>
</g>
</g>
</svg>
