<?xml version="1.0" encoding="UTF-8" standalone="no"?>
<!DOCTYPE svg PUBLIC "-//W3C//DTD SVG 1.1//EN"
 "http://www.w3.org/Graphics/SVG/1.1/DTD/svg11.dtd">
<!-- Generated by graphviz version 2.38.0 (20140413.2041)
 -->
<!-- Title: snakemake_dag Pages: 1 -->
<svg width="575pt" height="548pt"
 viewBox="0.00 0.00 575.00 548.00" xmlns="http://www.w3.org/2000/svg" xmlns:xlink="http://www.w3.org/1999/xlink">
<g id="graph0" class="graph" transform="scale(1 1) rotate(0) translate(4 544)">
<title>snakemake_dag</title>
<polygon fill="white" stroke="none" points="-4,4 -4,-544 571,-544 571,4 -4,4"/>
<!-- 0 -->
<g id="node1" class="node"><title>0</title>
<path fill="none" stroke="#80d856" stroke-width="2" stroke-dasharray="5,2" d="M297.5,-36C297.5,-36 267.5,-36 267.5,-36 261.5,-36 255.5,-30 255.5,-24 255.5,-24 255.5,-12 255.5,-12 255.5,-6 261.5,-0 267.5,-0 267.5,-0 297.5,-0 297.5,-0 303.5,-0 309.5,-6 309.5,-12 309.5,-12 309.5,-24 309.5,-24 309.5,-30 303.5,-36 297.5,-36"/>
<text text-anchor="middle" x="282.5" y="-15.5" font-family="sans" font-size="10.00">all</text>
</g>
<!-- 1 -->
<g id="node2" class="node"><title>1</title>
<path fill="none" stroke="#59d856" stroke-width="2" stroke-dasharray="5,2" d="M341,-108C341,-108 224,-108 224,-108 218,-108 212,-102 212,-96 212,-96 212,-84 212,-84 212,-78 218,-72 224,-72 224,-72 341,-72 341,-72 347,-72 353,-78 353,-84 353,-84 353,-96 353,-96 353,-102 347,-108 341,-108"/>
<text text-anchor="middle" x="282.5" y="-87.5" font-family="sans" font-size="10.00">generate_summary_plots</text>
</g>
<!-- 1&#45;&gt;0 -->
<g id="edge1" class="edge"><title>1&#45;&gt;0</title>
<path fill="none" stroke="grey" stroke-width="2" d="M282.5,-71.6966C282.5,-63.9827 282.5,-54.7125 282.5,-46.1124"/>
<polygon fill="grey" stroke="grey" stroke-width="2" points="286,-46.1043 282.5,-36.1043 279,-46.1044 286,-46.1043"/>
</g>
<!-- 2 -->
<g id="node3" class="node"><title>2</title>
<path fill="none" stroke="#d85656" stroke-width="2" stroke-dasharray="5,2" d="M326.5,-180C326.5,-180 238.5,-180 238.5,-180 232.5,-180 226.5,-174 226.5,-168 226.5,-168 226.5,-156 226.5,-156 226.5,-150 232.5,-144 238.5,-144 238.5,-144 326.5,-144 326.5,-144 332.5,-144 338.5,-150 338.5,-156 338.5,-156 338.5,-168 338.5,-168 338.5,-174 332.5,-180 326.5,-180"/>
<text text-anchor="middle" x="282.5" y="-159.5" font-family="sans" font-size="10.00">generate_summary</text>
</g>
<!-- 2&#45;&gt;1 -->
<g id="edge2" class="edge"><title>2&#45;&gt;1</title>
<path fill="none" stroke="grey" stroke-width="2" d="M282.5,-143.697C282.5,-135.983 282.5,-126.712 282.5,-118.112"/>
<polygon fill="grey" stroke="grey" stroke-width="2" points="286,-118.104 282.5,-108.104 279,-118.104 286,-118.104"/>
</g>
<!-- 3 -->
<g id="node4" class="node"><title>3</title>
<path fill="none" stroke="#5682d8" stroke-width="2" stroke-dasharray="5,2" d="M261.5,-252C261.5,-252 157.5,-252 157.5,-252 151.5,-252 145.5,-246 145.5,-240 145.5,-240 145.5,-228 145.5,-228 145.5,-222 151.5,-216 157.5,-216 157.5,-216 261.5,-216 261.5,-216 267.5,-216 273.5,-222 273.5,-228 273.5,-228 273.5,-240 273.5,-240 273.5,-246 267.5,-252 261.5,-252"/>
<text text-anchor="middle" x="209.5" y="-231.5" font-family="sans" font-size="10.00">vulcanspot_annotation</text>
</g>
<!-- 3&#45;&gt;2 -->
<g id="edge3" class="edge"><title>3&#45;&gt;2</title>
<path fill="none" stroke="grey" stroke-width="2" d="M227.545,-215.697C236.562,-207.05 247.618,-196.449 257.443,-187.027"/>
<polygon fill="grey" stroke="grey" stroke-width="2" points="259.867,-189.552 264.663,-180.104 255.022,-184.499 259.867,-189.552"/>
</g>
<!-- 4 -->
<g id="node5" class="node"><title>4</title>
<path fill="none" stroke="#5682d8" stroke-width="2" stroke-dasharray="5,2" d="M407.5,-252C407.5,-252 303.5,-252 303.5,-252 297.5,-252 291.5,-246 291.5,-240 291.5,-240 291.5,-228 291.5,-228 291.5,-222 297.5,-216 303.5,-216 303.5,-216 407.5,-216 407.5,-216 413.5,-216 419.5,-222 419.5,-228 419.5,-228 419.5,-240 419.5,-240 419.5,-246 413.5,-252 407.5,-252"/>
<text text-anchor="middle" x="355.5" y="-231.5" font-family="sans" font-size="10.00">vulcanspot_annotation</text>
</g>
<!-- 4&#45;&gt;2 -->
<g id="edge4" class="edge"><title>4&#45;&gt;2</title>
<path fill="none" stroke="grey" stroke-width="2" d="M337.455,-215.697C328.438,-207.05 317.382,-196.449 307.557,-187.027"/>
<polygon fill="grey" stroke="grey" stroke-width="2" points="309.978,-184.499 300.337,-180.104 305.133,-189.552 309.978,-184.499"/>
</g>
<!-- 5 -->
<g id="node6" class="node"><title>5</title>
<path fill="none" stroke="#d8ac56" stroke-width="2" stroke-dasharray="5,2" d="M183.5,-324C183.5,-324 37.5,-324 37.5,-324 31.5,-324 25.5,-318 25.5,-312 25.5,-312 25.5,-300 25.5,-300 25.5,-294 31.5,-288 37.5,-288 37.5,-288 183.5,-288 183.5,-288 189.5,-288 195.5,-294 195.5,-300 195.5,-300 195.5,-312 195.5,-312 195.5,-318 189.5,-324 183.5,-324"/>
<text text-anchor="middle" x="110.5" y="-303.5" font-family="sans" font-size="10.00">check_gain_of_function_events</text>
</g>
<!-- 5&#45;&gt;3 -->
<g id="edge5" class="edge"><title>5&#45;&gt;3</title>
<path fill="none" stroke="grey" stroke-width="2" d="M134.718,-287.876C147.423,-278.893 163.164,-267.763 176.923,-258.034"/>
<polygon fill="grey" stroke="grey" stroke-width="2" points="179.044,-260.821 185.189,-252.19 175.003,-255.105 179.044,-260.821"/>
</g>
<!-- 6 -->
<g id="node7" class="node"><title>6</title>
<path fill="none" stroke="#afd856" stroke-width="2" stroke-dasharray="5,2" d="M339.5,-324C339.5,-324 225.5,-324 225.5,-324 219.5,-324 213.5,-318 213.5,-312 213.5,-312 213.5,-300 213.5,-300 213.5,-294 219.5,-288 225.5,-288 225.5,-288 339.5,-288 339.5,-288 345.5,-288 351.5,-294 351.5,-300 351.5,-300 351.5,-312 351.5,-312 351.5,-318 345.5,-324 339.5,-324"/>
<text text-anchor="middle" x="282.5" y="-303.5" font-family="sans" font-size="10.00">rebuild_vulcan_database</text>
</g>
<!-- 6&#45;&gt;3 -->
<g id="edge6" class="edge"><title>6&#45;&gt;3</title>
<path fill="none" stroke="grey" stroke-width="2" d="M264.455,-287.697C255.438,-279.05 244.382,-268.449 234.557,-259.027"/>
<polygon fill="grey" stroke="grey" stroke-width="2" points="236.978,-256.499 227.337,-252.104 232.133,-261.552 236.978,-256.499"/>
</g>
<!-- 6&#45;&gt;4 -->
<g id="edge8" class="edge"><title>6&#45;&gt;4</title>
<path fill="none" stroke="grey" stroke-width="2" d="M300.545,-287.697C309.562,-279.05 320.618,-268.449 330.443,-259.027"/>
<polygon fill="grey" stroke="grey" stroke-width="2" points="332.867,-261.552 337.663,-252.104 328.022,-256.499 332.867,-261.552"/>
</g>
<!-- 7 -->
<g id="node8" class="node"><title>7</title>
<path fill="none" stroke="#d8ac56" stroke-width="2" stroke-dasharray="5,2" d="M527.5,-324C527.5,-324 381.5,-324 381.5,-324 375.5,-324 369.5,-318 369.5,-312 369.5,-312 369.5,-300 369.5,-300 369.5,-294 375.5,-288 381.5,-288 381.5,-288 527.5,-288 527.5,-288 533.5,-288 539.5,-294 539.5,-300 539.5,-300 539.5,-312 539.5,-312 539.5,-318 533.5,-324 527.5,-324"/>
<text text-anchor="middle" x="454.5" y="-303.5" font-family="sans" font-size="10.00">check_gain_of_function_events</text>
</g>
<!-- 7&#45;&gt;4 -->
<g id="edge7" class="edge"><title>7&#45;&gt;4</title>
<path fill="none" stroke="grey" stroke-width="2" d="M430.282,-287.876C417.577,-278.893 401.836,-267.763 388.077,-258.034"/>
<polygon fill="grey" stroke="grey" stroke-width="2" points="389.997,-255.105 379.811,-252.19 385.956,-260.821 389.997,-255.105"/>
</g>
<!-- 8 -->
<g id="node9" class="node"><title>8</title>
<path fill="none" stroke="#d88556" stroke-width="2" stroke-dasharray="5,2" d="M149,-396C149,-396 50,-396 50,-396 44,-396 38,-390 38,-384 38,-384 38,-372 38,-372 38,-366 44,-360 50,-360 50,-360 149,-360 149,-360 155,-360 161,-366 161,-372 161,-372 161,-384 161,-384 161,-390 155,-396 149,-396"/>
<text text-anchor="middle" x="99.5" y="-375.5" font-family="sans" font-size="10.00">generate_cases_table</text>
</g>
<!-- 8&#45;&gt;5 -->
<g id="edge9" class="edge"><title>8&#45;&gt;5</title>
<path fill="none" stroke="grey" stroke-width="2" d="M102.219,-359.697C103.431,-351.983 104.888,-342.712 106.239,-334.112"/>
<polygon fill="grey" stroke="grey" stroke-width="2" points="109.717,-334.526 107.812,-324.104 102.802,-333.44 109.717,-334.526"/>
</g>
<!-- 9 -->
<g id="node10" class="node"><title>9</title>
<path fill="none" stroke="#56d882" stroke-width="2" stroke-dasharray="5,2" d="M262,-396C262,-396 191,-396 191,-396 185,-396 179,-390 179,-384 179,-384 179,-372 179,-372 179,-366 185,-360 191,-360 191,-360 262,-360 262,-360 268,-360 274,-366 274,-372 274,-372 274,-384 274,-384 274,-390 268,-396 262,-396"/>
<text text-anchor="middle" x="226.5" y="-381" font-family="sans" font-size="10.00">filter_mrna_files</text>
<text text-anchor="middle" x="226.5" y="-370" font-family="sans" font-size="10.00">project: ACC</text>
</g>
<!-- 9&#45;&gt;5 -->
<g id="edge10" class="edge"><title>9&#45;&gt;5</title>
<path fill="none" stroke="grey" stroke-width="2" d="M198.123,-359.876C182.956,-350.724 164.095,-339.342 147.761,-329.485"/>
<polygon fill="grey" stroke="grey" stroke-width="2" points="149.356,-326.36 138.986,-324.19 145.739,-332.353 149.356,-326.36"/>
</g>
<!-- 10 -->
<g id="node11" class="node"><title>10</title>
<path fill="none" stroke="#d88556" stroke-width="2" stroke-dasharray="5,2" d="M516,-396C516,-396 417,-396 417,-396 411,-396 405,-390 405,-384 405,-384 405,-372 405,-372 405,-366 411,-360 417,-360 417,-360 516,-360 516,-360 522,-360 528,-366 528,-372 528,-372 528,-384 528,-384 528,-390 522,-396 516,-396"/>
<text text-anchor="middle" x="466.5" y="-375.5" font-family="sans" font-size="10.00">generate_cases_table</text>
</g>
<!-- 10&#45;&gt;7 -->
<g id="edge11" class="edge"><title>10&#45;&gt;7</title>
<path fill="none" stroke="grey" stroke-width="2" d="M463.534,-359.697C462.211,-351.983 460.622,-342.712 459.148,-334.112"/>
<polygon fill="grey" stroke="grey" stroke-width="2" points="462.572,-333.369 457.432,-324.104 455.672,-334.552 462.572,-333.369"/>
</g>
<!-- 11 -->
<g id="node12" class="node"><title>11</title>
<path fill="none" stroke="#56d882" stroke-width="2" stroke-dasharray="5,2" d="M375,-396C375,-396 304,-396 304,-396 298,-396 292,-390 292,-384 292,-384 292,-372 292,-372 292,-366 298,-360 304,-360 304,-360 375,-360 375,-360 381,-360 387,-366 387,-372 387,-372 387,-384 387,-384 387,-390 381,-396 375,-396"/>
<text text-anchor="middle" x="339.5" y="-381" font-family="sans" font-size="10.00">filter_mrna_files</text>
<text text-anchor="middle" x="339.5" y="-370" font-family="sans" font-size="10.00">project: BLCA</text>
</g>
<!-- 11&#45;&gt;7 -->
<g id="edge12" class="edge"><title>11&#45;&gt;7</title>
<path fill="none" stroke="grey" stroke-width="2" d="M367.632,-359.876C382.668,-350.724 401.367,-339.342 417.56,-329.485"/>
<polygon fill="grey" stroke="grey" stroke-width="2" points="419.538,-332.379 426.26,-324.19 415.898,-326.4 419.538,-332.379"/>
</g>
<!-- 12 -->
<g id="node13" class="node"><title>12</title>
<path fill="none" stroke="#56d8d8" stroke-width="2" stroke-dasharray="5,2" d="M182,-468C182,-468 117,-468 117,-468 111,-468 105,-462 105,-456 105,-456 105,-444 105,-444 105,-438 111,-432 117,-432 117,-432 182,-432 182,-432 188,-432 194,-438 194,-444 194,-444 194,-456 194,-456 194,-462 188,-468 182,-468"/>
<text text-anchor="middle" x="149.5" y="-453" font-family="sans" font-size="10.00">filter_maf_files</text>
<text text-anchor="middle" x="149.5" y="-442" font-family="sans" font-size="10.00">project: ACC</text>
</g>
<!-- 12&#45;&gt;8 -->
<g id="edge13" class="edge"><title>12&#45;&gt;8</title>
<path fill="none" stroke="grey" stroke-width="2" d="M137.14,-431.697C131.267,-423.474 124.131,-413.483 117.658,-404.421"/>
<polygon fill="grey" stroke="grey" stroke-width="2" points="120.378,-402.207 111.717,-396.104 114.682,-406.276 120.378,-402.207"/>
</g>
<!-- 13 -->
<g id="node14" class="node"><title>13</title>
<path fill="none" stroke="#56a9d8" stroke-width="2" stroke-dasharray="5,2" d="M75,-468C75,-468 12,-468 12,-468 6,-468 0,-462 0,-456 0,-456 0,-444 0,-444 0,-438 6,-432 12,-432 12,-432 75,-432 75,-432 81,-432 87,-438 87,-444 87,-444 87,-456 87,-456 87,-462 81,-468 75,-468"/>
<text text-anchor="middle" x="43.5" y="-453" font-family="sans" font-size="10.00">filter_cnv_files</text>
<text text-anchor="middle" x="43.5" y="-442" font-family="sans" font-size="10.00">project: ACC</text>
</g>
<!-- 13&#45;&gt;8 -->
<g id="edge14" class="edge"><title>13&#45;&gt;8</title>
<path fill="none" stroke="grey" stroke-width="2" d="M57.3427,-431.697C63.9885,-423.389 72.0784,-413.277 79.3874,-404.141"/>
<polygon fill="grey" stroke="grey" stroke-width="2" points="82.3026,-406.099 85.8165,-396.104 76.8365,-401.727 82.3026,-406.099"/>
</g>
<!-- 14 -->
<g id="node15" class="node"><title>14</title>
<path fill="none" stroke="#d6d856" stroke-width="2" stroke-dasharray="5,2" d="M343,-468C343,-468 224,-468 224,-468 218,-468 212,-462 212,-456 212,-456 212,-444 212,-444 212,-438 218,-432 224,-432 224,-432 343,-432 343,-432 349,-432 355,-438 355,-444 355,-444 355,-456 355,-456 355,-462 349,-468 343,-468"/>
<text text-anchor="middle" x="283.5" y="-447.5" font-family="sans" font-size="10.00">rebuild_rnaseq_dictionary</text>
</g>
<!-- 14&#45;&gt;9 -->
<g id="edge15" class="edge"><title>14&#45;&gt;9</title>
<path fill="none" stroke="grey" stroke-width="2" d="M269.41,-431.697C262.577,-423.305 254.243,-413.07 246.744,-403.861"/>
<polygon fill="grey" stroke="grey" stroke-width="2" points="249.456,-401.649 240.428,-396.104 244.028,-406.069 249.456,-401.649"/>
</g>
<!-- 14&#45;&gt;11 -->
<g id="edge18" class="edge"><title>14&#45;&gt;11</title>
<path fill="none" stroke="grey" stroke-width="2" d="M297.343,-431.697C303.989,-423.389 312.078,-413.277 319.387,-404.141"/>
<polygon fill="grey" stroke="grey" stroke-width="2" points="322.303,-406.099 325.817,-396.104 316.836,-401.727 322.303,-406.099"/>
</g>
<!-- 15 -->
<g id="node16" class="node"><title>15</title>
<path fill="none" stroke="#56d8d8" stroke-width="2" stroke-dasharray="5,2" d="M450,-468C450,-468 385,-468 385,-468 379,-468 373,-462 373,-456 373,-456 373,-444 373,-444 373,-438 379,-432 385,-432 385,-432 450,-432 450,-432 456,-432 462,-438 462,-444 462,-444 462,-456 462,-456 462,-462 456,-468 450,-468"/>
<text text-anchor="middle" x="417.5" y="-453" font-family="sans" font-size="10.00">filter_maf_files</text>
<text text-anchor="middle" x="417.5" y="-442" font-family="sans" font-size="10.00">project: BLCA</text>
</g>
<!-- 15&#45;&gt;10 -->
<g id="edge16" class="edge"><title>15&#45;&gt;10</title>
<path fill="none" stroke="grey" stroke-width="2" d="M429.612,-431.697C435.368,-423.474 442.362,-413.483 448.706,-404.421"/>
<polygon fill="grey" stroke="grey" stroke-width="2" points="451.66,-406.304 454.527,-396.104 445.925,-402.29 451.66,-406.304"/>
</g>
<!-- 16 -->
<g id="node17" class="node"><title>16</title>
<path fill="none" stroke="#56a9d8" stroke-width="2" stroke-dasharray="5,2" d="M555,-468C555,-468 492,-468 492,-468 486,-468 480,-462 480,-456 480,-456 480,-444 480,-444 480,-438 486,-432 492,-432 492,-432 555,-432 555,-432 561,-432 567,-438 567,-444 567,-444 567,-456 567,-456 567,-462 561,-468 555,-468"/>
<text text-anchor="middle" x="523.5" y="-453" font-family="sans" font-size="10.00">filter_cnv_files</text>
<text text-anchor="middle" x="523.5" y="-442" font-family="sans" font-size="10.00">project: BLCA</text>
</g>
<!-- 16&#45;&gt;10 -->
<g id="edge17" class="edge"><title>16&#45;&gt;10</title>
<path fill="none" stroke="grey" stroke-width="2" d="M509.41,-431.697C502.577,-423.305 494.243,-413.07 486.744,-403.861"/>
<polygon fill="grey" stroke="grey" stroke-width="2" points="489.456,-401.649 480.428,-396.104 484.028,-406.069 489.456,-401.649"/>
</g>
<!-- 17 -->
<g id="node18" class="node"><title>17</title>
<path fill="none" stroke="#56d8a9" stroke-width="2" stroke-dasharray="5,2" d="M350.5,-540C350.5,-540 216.5,-540 216.5,-540 210.5,-540 204.5,-534 204.5,-528 204.5,-528 204.5,-516 204.5,-516 204.5,-510 210.5,-504 216.5,-504 216.5,-504 350.5,-504 350.5,-504 356.5,-504 362.5,-510 362.5,-516 362.5,-516 362.5,-528 362.5,-528 362.5,-534 356.5,-540 350.5,-540"/>
<text text-anchor="middle" x="283.5" y="-519.5" font-family="sans" font-size="10.00">rebuild_snp_array_dictionary</text>
</g>
<!-- 17&#45;&gt;13 -->
<g id="edge19" class="edge"><title>17&#45;&gt;13</title>
<path fill="none" stroke="grey" stroke-width="2" d="M221.437,-503.984C187.314,-494.494 144.019,-482.237 96.9221,-468.08"/>
<polygon fill="grey" stroke="grey" stroke-width="2" points="97.7206,-464.665 87.1358,-465.127 95.6984,-471.366 97.7206,-464.665"/>
</g>
<!-- 17&#45;&gt;16 -->
<g id="edge20" class="edge"><title>17&#45;&gt;16</title>
<path fill="none" stroke="grey" stroke-width="2" d="M346.355,-503.977C380.613,-494.536 423.958,-482.33 470.243,-468.333"/>
<polygon fill="grey" stroke="grey" stroke-width="2" points="471.298,-471.671 479.849,-465.415 469.263,-464.973 471.298,-471.671"/>
</g>
</g>
</svg>
