<?xml version="1.0" encoding="UTF-8" standalone="no"?>
<!DOCTYPE svg PUBLIC "-//W3C//DTD SVG 1.1//EN"
 "http://www.w3.org/Graphics/SVG/1.1/DTD/svg11.dtd">
<!-- Generated by graphviz version 2.38.0 (20140413.2041)
 -->
<!-- Title: snakemake_dag Pages: 1 -->
<svg width="678pt" height="548pt"
 viewBox="0.00 0.00 678.00 548.00" xmlns="http://www.w3.org/2000/svg" xmlns:xlink="http://www.w3.org/1999/xlink">
<g id="graph0" class="graph" transform="scale(1 1) rotate(0) translate(4 544)">
<title>snakemake_dag</title>
<polygon fill="white" stroke="none" points="-4,4 -4,-544 674,-544 674,4 -4,4"/>
<!-- 0 -->
<g id="node1" class="node"><title>0</title>
<path fill="none" stroke="#d8c356" stroke-width="2" stroke-dasharray="5,2" d="M349,-36C349,-36 319,-36 319,-36 313,-36 307,-30 307,-24 307,-24 307,-12 307,-12 307,-6 313,-0 319,-0 319,-0 349,-0 349,-0 355,-0 361,-6 361,-12 361,-12 361,-24 361,-24 361,-30 355,-36 349,-36"/>
<text text-anchor="middle" x="334" y="-15.5" font-family="sans" font-size="10.00">all</text>
</g>
<!-- 1 -->
<g id="node2" class="node"><title>1</title>
<path fill="none" stroke="#c6d856" stroke-width="2" stroke-dasharray="5,2" d="M311.5,-108C311.5,-108 194.5,-108 194.5,-108 188.5,-108 182.5,-102 182.5,-96 182.5,-96 182.5,-84 182.5,-84 182.5,-78 188.5,-72 194.5,-72 194.5,-72 311.5,-72 311.5,-72 317.5,-72 323.5,-78 323.5,-84 323.5,-84 323.5,-96 323.5,-96 323.5,-102 317.5,-108 311.5,-108"/>
<text text-anchor="middle" x="253" y="-87.5" font-family="sans" font-size="10.00">generate_summary_plots</text>
</g>
<!-- 1&#45;&gt;0 -->
<g id="edge1" class="edge"><title>1&#45;&gt;0</title>
<path fill="none" stroke="grey" stroke-width="2" d="M273.022,-71.6966C283.126,-62.9655 295.536,-52.2405 306.518,-42.7503"/>
<polygon fill="grey" stroke="grey" stroke-width="2" points="308.93,-45.2912 314.208,-36.1043 304.353,-39.9948 308.93,-45.2912"/>
</g>
<!-- 2 -->
<g id="node3" class="node"><title>2</title>
<path fill="none" stroke="#9fd856" stroke-width="2" stroke-dasharray="5,2" d="M478,-108C478,-108 354,-108 354,-108 348,-108 342,-102 342,-96 342,-96 342,-84 342,-84 342,-78 348,-72 354,-72 354,-72 478,-72 478,-72 484,-72 490,-78 490,-84 490,-84 490,-96 490,-96 490,-102 484,-108 478,-108"/>
<text text-anchor="middle" x="416" y="-87.5" font-family="sans" font-size="10.00">generate_vulcanspot_plots</text>
</g>
<!-- 2&#45;&gt;0 -->
<g id="edge2" class="edge"><title>2&#45;&gt;0</title>
<path fill="none" stroke="grey" stroke-width="2" d="M395.73,-71.6966C385.502,-62.9655 372.939,-52.2405 361.822,-42.7503"/>
<polygon fill="grey" stroke="grey" stroke-width="2" points="363.915,-39.935 354.037,-36.1043 359.37,-45.259 363.915,-39.935"/>
</g>
<!-- 3 -->
<g id="node4" class="node"><title>3</title>
<path fill="none" stroke="#56d8c9" stroke-width="2" stroke-dasharray="5,2" d="M378,-180C378,-180 290,-180 290,-180 284,-180 278,-174 278,-168 278,-168 278,-156 278,-156 278,-150 284,-144 290,-144 290,-144 378,-144 378,-144 384,-144 390,-150 390,-156 390,-156 390,-168 390,-168 390,-174 384,-180 378,-180"/>
<text text-anchor="middle" x="334" y="-159.5" font-family="sans" font-size="10.00">generate_summary</text>
</g>
<!-- 3&#45;&gt;1 -->
<g id="edge3" class="edge"><title>3&#45;&gt;1</title>
<path fill="none" stroke="grey" stroke-width="2" d="M313.978,-143.697C303.874,-134.965 291.464,-124.24 280.482,-114.75"/>
<polygon fill="grey" stroke="grey" stroke-width="2" points="282.647,-111.995 272.792,-108.104 278.07,-117.291 282.647,-111.995"/>
</g>
<!-- 3&#45;&gt;2 -->
<g id="edge4" class="edge"><title>3&#45;&gt;2</title>
<path fill="none" stroke="grey" stroke-width="2" d="M354.27,-143.697C364.498,-134.965 377.061,-124.24 388.178,-114.75"/>
<polygon fill="grey" stroke="grey" stroke-width="2" points="390.63,-117.259 395.963,-108.104 386.085,-111.935 390.63,-117.259"/>
</g>
<!-- 4 -->
<g id="node5" class="node"><title>4</title>
<path fill="none" stroke="#d85656" stroke-width="2" stroke-dasharray="5,2" d="M462,-252C462,-252 358,-252 358,-252 352,-252 346,-246 346,-240 346,-240 346,-228 346,-228 346,-222 352,-216 358,-216 358,-216 462,-216 462,-216 468,-216 474,-222 474,-228 474,-228 474,-240 474,-240 474,-246 468,-252 462,-252"/>
<text text-anchor="middle" x="410" y="-231.5" font-family="sans" font-size="10.00">vulcanspot_annotation</text>
</g>
<!-- 4&#45;&gt;3 -->
<g id="edge5" class="edge"><title>4&#45;&gt;3</title>
<path fill="none" stroke="grey" stroke-width="2" d="M391.213,-215.697C381.826,-207.05 370.316,-196.449 360.087,-187.027"/>
<polygon fill="grey" stroke="grey" stroke-width="2" points="362.297,-184.305 352.57,-180.104 357.555,-189.454 362.297,-184.305"/>
</g>
<!-- 5 -->
<g id="node6" class="node"><title>5</title>
<path fill="none" stroke="#d85656" stroke-width="2" stroke-dasharray="5,2" d="M311,-252C311,-252 207,-252 207,-252 201,-252 195,-246 195,-240 195,-240 195,-228 195,-228 195,-222 201,-216 207,-216 207,-216 311,-216 311,-216 317,-216 323,-222 323,-228 323,-228 323,-240 323,-240 323,-246 317,-252 311,-252"/>
<text text-anchor="middle" x="259" y="-231.5" font-family="sans" font-size="10.00">vulcanspot_annotation</text>
</g>
<!-- 5&#45;&gt;3 -->
<g id="edge6" class="edge"><title>5&#45;&gt;3</title>
<path fill="none" stroke="grey" stroke-width="2" d="M277.539,-215.697C286.803,-207.05 298.162,-196.449 308.257,-187.027"/>
<polygon fill="grey" stroke="grey" stroke-width="2" points="310.751,-189.486 315.674,-180.104 305.975,-184.369 310.751,-189.486"/>
</g>
<!-- 6 -->
<g id="node7" class="node"><title>6</title>
<path fill="none" stroke="#567bd8" stroke-width="2" stroke-dasharray="5,2" d="M658,-324C658,-324 512,-324 512,-324 506,-324 500,-318 500,-312 500,-312 500,-300 500,-300 500,-294 506,-288 512,-288 512,-288 658,-288 658,-288 664,-288 670,-294 670,-300 670,-300 670,-312 670,-312 670,-318 664,-324 658,-324"/>
<text text-anchor="middle" x="585" y="-303.5" font-family="sans" font-size="10.00">check_gain_of_function_events</text>
</g>
<!-- 6&#45;&gt;4 -->
<g id="edge7" class="edge"><title>6&#45;&gt;4</title>
<path fill="none" stroke="grey" stroke-width="2" d="M542.19,-287.876C518.054,-278.222 487.716,-266.087 462.194,-255.878"/>
<polygon fill="grey" stroke="grey" stroke-width="2" points="463.255,-252.533 452.671,-252.068 460.656,-259.032 463.255,-252.533"/>
</g>
<!-- 7 -->
<g id="node8" class="node"><title>7</title>
<path fill="none" stroke="#56a2d8" stroke-width="2" stroke-dasharray="5,2" d="M314,-324C314,-324 200,-324 200,-324 194,-324 188,-318 188,-312 188,-312 188,-300 188,-300 188,-294 194,-288 200,-288 200,-288 314,-288 314,-288 320,-288 326,-294 326,-300 326,-300 326,-312 326,-312 326,-318 320,-324 314,-324"/>
<text text-anchor="middle" x="257" y="-303.5" font-family="sans" font-size="10.00">rebuild_vulcan_database</text>
</g>
<!-- 7&#45;&gt;4 -->
<g id="edge8" class="edge"><title>7&#45;&gt;4</title>
<path fill="none" stroke="grey" stroke-width="2" d="M294.428,-287.876C315.251,-278.349 341.354,-266.407 363.481,-256.283"/>
<polygon fill="grey" stroke="grey" stroke-width="2" points="365.056,-259.411 372.694,-252.068 362.144,-253.046 365.056,-259.411"/>
</g>
<!-- 7&#45;&gt;5 -->
<g id="edge11" class="edge"><title>7&#45;&gt;5</title>
<path fill="none" stroke="grey" stroke-width="2" d="M257.494,-287.697C257.715,-279.983 257.98,-270.712 258.225,-262.112"/>
<polygon fill="grey" stroke="grey" stroke-width="2" points="261.724,-262.2 258.511,-252.104 254.727,-262 261.724,-262.2"/>
</g>
<!-- 8 -->
<g id="node9" class="node"><title>8</title>
<path fill="none" stroke="#56d8a2" stroke-width="2" stroke-dasharray="5,2" d="M470,-324C470,-324 356,-324 356,-324 350,-324 344,-318 344,-312 344,-312 344,-300 344,-300 344,-294 350,-288 356,-288 356,-288 470,-288 470,-288 476,-288 482,-294 482,-300 482,-300 482,-312 482,-312 482,-318 476,-324 470,-324"/>
<text text-anchor="middle" x="413" y="-303.5" font-family="sans" font-size="10.00">rebuild_gscore_database</text>
</g>
<!-- 8&#45;&gt;4 -->
<g id="edge9" class="edge"><title>8&#45;&gt;4</title>
<path fill="none" stroke="grey" stroke-width="2" d="M412.258,-287.697C411.928,-279.983 411.531,-270.712 411.162,-262.112"/>
<polygon fill="grey" stroke="grey" stroke-width="2" points="414.658,-261.945 410.733,-252.104 407.665,-262.245 414.658,-261.945"/>
</g>
<!-- 8&#45;&gt;5 -->
<g id="edge12" class="edge"><title>8&#45;&gt;5</title>
<path fill="none" stroke="grey" stroke-width="2" d="M375.327,-287.876C354.368,-278.349 328.095,-266.407 305.823,-256.283"/>
<polygon fill="grey" stroke="grey" stroke-width="2" points="307.102,-253.02 296.55,-252.068 304.206,-259.393 307.102,-253.02"/>
</g>
<!-- 9 -->
<g id="node10" class="node"><title>9</title>
<path fill="none" stroke="#567bd8" stroke-width="2" stroke-dasharray="5,2" d="M158,-324C158,-324 12,-324 12,-324 6,-324 0,-318 0,-312 0,-312 0,-300 0,-300 0,-294 6,-288 12,-288 12,-288 158,-288 158,-288 164,-288 170,-294 170,-300 170,-300 170,-312 170,-312 170,-318 164,-324 158,-324"/>
<text text-anchor="middle" x="85" y="-303.5" font-family="sans" font-size="10.00">check_gain_of_function_events</text>
</g>
<!-- 9&#45;&gt;5 -->
<g id="edge10" class="edge"><title>9&#45;&gt;5</title>
<path fill="none" stroke="grey" stroke-width="2" d="M127.565,-287.876C151.563,-278.222 181.728,-266.087 207.104,-255.878"/>
<polygon fill="grey" stroke="grey" stroke-width="2" points="208.602,-259.048 216.573,-252.068 205.989,-252.554 208.602,-259.048"/>
</g>
<!-- 10 -->
<g id="node11" class="node"><title>10</title>
<path fill="none" stroke="#59d856" stroke-width="2" stroke-dasharray="5,2" d="M631.5,-396C631.5,-396 532.5,-396 532.5,-396 526.5,-396 520.5,-390 520.5,-384 520.5,-384 520.5,-372 520.5,-372 520.5,-366 526.5,-360 532.5,-360 532.5,-360 631.5,-360 631.5,-360 637.5,-360 643.5,-366 643.5,-372 643.5,-372 643.5,-384 643.5,-384 643.5,-390 637.5,-396 631.5,-396"/>
<text text-anchor="middle" x="582" y="-375.5" font-family="sans" font-size="10.00">generate_cases_table</text>
</g>
<!-- 10&#45;&gt;6 -->
<g id="edge13" class="edge"><title>10&#45;&gt;6</title>
<path fill="none" stroke="grey" stroke-width="2" d="M582.742,-359.697C583.072,-351.983 583.469,-342.712 583.838,-334.112"/>
<polygon fill="grey" stroke="grey" stroke-width="2" points="587.335,-334.245 584.267,-324.104 580.342,-333.945 587.335,-334.245"/>
</g>
<!-- 11 -->
<g id="node12" class="node"><title>11</title>
<path fill="none" stroke="#56d87b" stroke-width="2" stroke-dasharray="5,2" d="M423.5,-396C423.5,-396 352.5,-396 352.5,-396 346.5,-396 340.5,-390 340.5,-384 340.5,-384 340.5,-372 340.5,-372 340.5,-366 346.5,-360 352.5,-360 352.5,-360 423.5,-360 423.5,-360 429.5,-360 435.5,-366 435.5,-372 435.5,-372 435.5,-384 435.5,-384 435.5,-390 429.5,-396 423.5,-396"/>
<text text-anchor="middle" x="388" y="-381" font-family="sans" font-size="10.00">filter_mrna_files</text>
<text text-anchor="middle" x="388" y="-370" font-family="sans" font-size="10.00">project: ACC</text>
</g>
<!-- 11&#45;&gt;6 -->
<g id="edge14" class="edge"><title>11&#45;&gt;6</title>
<path fill="none" stroke="grey" stroke-width="2" d="M435.688,-360.055C463.311,-350.24 498.276,-337.816 527.425,-327.458"/>
<polygon fill="grey" stroke="grey" stroke-width="2" points="528.817,-330.678 537.068,-324.032 526.473,-324.082 528.817,-330.678"/>
</g>
<!-- 12 -->
<g id="node13" class="node"><title>12</title>
<path fill="none" stroke="#59d856" stroke-width="2" stroke-dasharray="5,2" d="M136.5,-396C136.5,-396 37.5,-396 37.5,-396 31.5,-396 25.5,-390 25.5,-384 25.5,-384 25.5,-372 25.5,-372 25.5,-366 31.5,-360 37.5,-360 37.5,-360 136.5,-360 136.5,-360 142.5,-360 148.5,-366 148.5,-372 148.5,-372 148.5,-384 148.5,-384 148.5,-390 142.5,-396 136.5,-396"/>
<text text-anchor="middle" x="87" y="-375.5" font-family="sans" font-size="10.00">generate_cases_table</text>
</g>
<!-- 12&#45;&gt;9 -->
<g id="edge15" class="edge"><title>12&#45;&gt;9</title>
<path fill="none" stroke="grey" stroke-width="2" d="M86.5056,-359.697C86.2852,-351.983 86.0204,-342.712 85.7746,-334.112"/>
<polygon fill="grey" stroke="grey" stroke-width="2" points="89.273,-334 85.4887,-324.104 82.2758,-334.2 89.273,-334"/>
</g>
<!-- 13 -->
<g id="node14" class="node"><title>13</title>
<path fill="none" stroke="#56d87b" stroke-width="2" stroke-dasharray="5,2" d="M310.5,-396C310.5,-396 239.5,-396 239.5,-396 233.5,-396 227.5,-390 227.5,-384 227.5,-384 227.5,-372 227.5,-372 227.5,-366 233.5,-360 239.5,-360 239.5,-360 310.5,-360 310.5,-360 316.5,-360 322.5,-366 322.5,-372 322.5,-372 322.5,-384 322.5,-384 322.5,-390 316.5,-396 310.5,-396"/>
<text text-anchor="middle" x="275" y="-381" font-family="sans" font-size="10.00">filter_mrna_files</text>
<text text-anchor="middle" x="275" y="-370" font-family="sans" font-size="10.00">project: BLCA</text>
</g>
<!-- 13&#45;&gt;9 -->
<g id="edge16" class="edge"><title>13&#45;&gt;9</title>
<path fill="none" stroke="grey" stroke-width="2" d="M228.521,-359.876C202.085,-350.137 168.797,-337.872 140.936,-327.608"/>
<polygon fill="grey" stroke="grey" stroke-width="2" points="141.922,-324.241 131.328,-324.068 139.502,-330.81 141.922,-324.241"/>
</g>
<!-- 14 -->
<g id="node15" class="node"><title>14</title>
<path fill="none" stroke="#78d856" stroke-width="2" stroke-dasharray="5,2" d="M508.5,-468C508.5,-468 443.5,-468 443.5,-468 437.5,-468 431.5,-462 431.5,-456 431.5,-456 431.5,-444 431.5,-444 431.5,-438 437.5,-432 443.5,-432 443.5,-432 508.5,-432 508.5,-432 514.5,-432 520.5,-438 520.5,-444 520.5,-444 520.5,-456 520.5,-456 520.5,-462 514.5,-468 508.5,-468"/>
<text text-anchor="middle" x="476" y="-453" font-family="sans" font-size="10.00">filter_maf_files</text>
<text text-anchor="middle" x="476" y="-442" font-family="sans" font-size="10.00">project: ACC</text>
</g>
<!-- 14&#45;&gt;10 -->
<g id="edge17" class="edge"><title>14&#45;&gt;10</title>
<path fill="none" stroke="grey" stroke-width="2" d="M501.931,-431.876C515.662,-422.808 532.706,-411.552 547.536,-401.759"/>
<polygon fill="grey" stroke="grey" stroke-width="2" points="549.554,-404.621 555.97,-396.19 545.696,-398.78 549.554,-404.621"/>
</g>
<!-- 15 -->
<g id="node16" class="node"><title>15</title>
<path fill="none" stroke="#56c9d8" stroke-width="2" stroke-dasharray="5,2" d="M613.5,-468C613.5,-468 550.5,-468 550.5,-468 544.5,-468 538.5,-462 538.5,-456 538.5,-456 538.5,-444 538.5,-444 538.5,-438 544.5,-432 550.5,-432 550.5,-432 613.5,-432 613.5,-432 619.5,-432 625.5,-438 625.5,-444 625.5,-444 625.5,-456 625.5,-456 625.5,-462 619.5,-468 613.5,-468"/>
<text text-anchor="middle" x="582" y="-453" font-family="sans" font-size="10.00">filter_cnv_files</text>
<text text-anchor="middle" x="582" y="-442" font-family="sans" font-size="10.00">project: ACC</text>
</g>
<!-- 15&#45;&gt;10 -->
<g id="edge18" class="edge"><title>15&#45;&gt;10</title>
<path fill="none" stroke="grey" stroke-width="2" d="M582,-431.697C582,-423.983 582,-414.712 582,-406.112"/>
<polygon fill="grey" stroke="grey" stroke-width="2" points="585.5,-406.104 582,-396.104 578.5,-406.104 585.5,-406.104"/>
</g>
<!-- 16 -->
<g id="node17" class="node"><title>16</title>
<path fill="none" stroke="#d87d56" stroke-width="2" stroke-dasharray="5,2" d="M391.5,-468C391.5,-468 272.5,-468 272.5,-468 266.5,-468 260.5,-462 260.5,-456 260.5,-456 260.5,-444 260.5,-444 260.5,-438 266.5,-432 272.5,-432 272.5,-432 391.5,-432 391.5,-432 397.5,-432 403.5,-438 403.5,-444 403.5,-444 403.5,-456 403.5,-456 403.5,-462 397.5,-468 391.5,-468"/>
<text text-anchor="middle" x="332" y="-447.5" font-family="sans" font-size="10.00">rebuild_rnaseq_dictionary</text>
</g>
<!-- 16&#45;&gt;11 -->
<g id="edge19" class="edge"><title>16&#45;&gt;11</title>
<path fill="none" stroke="grey" stroke-width="2" d="M345.843,-431.697C352.489,-423.389 360.578,-413.277 367.887,-404.141"/>
<polygon fill="grey" stroke="grey" stroke-width="2" points="370.803,-406.099 374.317,-396.104 365.336,-401.727 370.803,-406.099"/>
</g>
<!-- 16&#45;&gt;13 -->
<g id="edge22" class="edge"><title>16&#45;&gt;13</title>
<path fill="none" stroke="grey" stroke-width="2" d="M317.91,-431.697C311.077,-423.305 302.743,-413.07 295.244,-403.861"/>
<polygon fill="grey" stroke="grey" stroke-width="2" points="297.956,-401.649 288.928,-396.104 292.528,-406.069 297.956,-401.649"/>
</g>
<!-- 17 -->
<g id="node18" class="node"><title>17</title>
<path fill="none" stroke="#78d856" stroke-width="2" stroke-dasharray="5,2" d="M225.5,-468C225.5,-468 160.5,-468 160.5,-468 154.5,-468 148.5,-462 148.5,-456 148.5,-456 148.5,-444 148.5,-444 148.5,-438 154.5,-432 160.5,-432 160.5,-432 225.5,-432 225.5,-432 231.5,-432 237.5,-438 237.5,-444 237.5,-444 237.5,-456 237.5,-456 237.5,-462 231.5,-468 225.5,-468"/>
<text text-anchor="middle" x="193" y="-453" font-family="sans" font-size="10.00">filter_maf_files</text>
<text text-anchor="middle" x="193" y="-442" font-family="sans" font-size="10.00">project: BLCA</text>
</g>
<!-- 17&#45;&gt;12 -->
<g id="edge20" class="edge"><title>17&#45;&gt;12</title>
<path fill="none" stroke="grey" stroke-width="2" d="M167.069,-431.876C153.338,-422.808 136.294,-411.552 121.464,-401.759"/>
<polygon fill="grey" stroke="grey" stroke-width="2" points="123.304,-398.78 113.03,-396.19 119.446,-404.621 123.304,-398.78"/>
</g>
<!-- 18 -->
<g id="node19" class="node"><title>18</title>
<path fill="none" stroke="#56c9d8" stroke-width="2" stroke-dasharray="5,2" d="M118.5,-468C118.5,-468 55.5,-468 55.5,-468 49.5,-468 43.5,-462 43.5,-456 43.5,-456 43.5,-444 43.5,-444 43.5,-438 49.5,-432 55.5,-432 55.5,-432 118.5,-432 118.5,-432 124.5,-432 130.5,-438 130.5,-444 130.5,-444 130.5,-456 130.5,-456 130.5,-462 124.5,-468 118.5,-468"/>
<text text-anchor="middle" x="87" y="-453" font-family="sans" font-size="10.00">filter_cnv_files</text>
<text text-anchor="middle" x="87" y="-442" font-family="sans" font-size="10.00">project: BLCA</text>
</g>
<!-- 18&#45;&gt;12 -->
<g id="edge21" class="edge"><title>18&#45;&gt;12</title>
<path fill="none" stroke="grey" stroke-width="2" d="M87,-431.697C87,-423.983 87,-414.712 87,-406.112"/>
<polygon fill="grey" stroke="grey" stroke-width="2" points="90.5001,-406.104 87,-396.104 83.5001,-406.104 90.5001,-406.104"/>
</g>
<!-- 19 -->
<g id="node20" class="node"><title>19</title>
<path fill="none" stroke="#d8a456" stroke-width="2" stroke-dasharray="5,2" d="M401,-540C401,-540 267,-540 267,-540 261,-540 255,-534 255,-528 255,-528 255,-516 255,-516 255,-510 261,-504 267,-504 267,-504 401,-504 401,-504 407,-504 413,-510 413,-516 413,-516 413,-528 413,-528 413,-534 407,-540 401,-540"/>
<text text-anchor="middle" x="334" y="-519.5" font-family="sans" font-size="10.00">rebuild_snp_array_dictionary</text>
</g>
<!-- 19&#45;&gt;15 -->
<g id="edge23" class="edge"><title>19&#45;&gt;15</title>
<path fill="none" stroke="grey" stroke-width="2" d="M400.471,-503.942C436.077,-494.591 480.885,-482.484 528.483,-468.39"/>
<polygon fill="grey" stroke="grey" stroke-width="2" points="529.774,-471.658 538.359,-465.449 527.776,-464.949 529.774,-471.658"/>
</g>
<!-- 19&#45;&gt;18 -->
<g id="edge24" class="edge"><title>19&#45;&gt;18</title>
<path fill="none" stroke="grey" stroke-width="2" d="M267.874,-503.917C232.451,-494.558 187.871,-482.451 140.476,-468.381"/>
<polygon fill="grey" stroke="grey" stroke-width="2" points="141.226,-464.952 130.642,-465.445 139.223,-471.659 141.226,-464.952"/>
</g>
</g>
</svg>
