<?xml version="1.0" encoding="UTF-8" standalone="no"?>
<!DOCTYPE svg PUBLIC "-//W3C//DTD SVG 1.1//EN"
 "http://www.w3.org/Graphics/SVG/1.1/DTD/svg11.dtd">
<!-- Generated by graphviz version 2.40.1 (20161225.0304)
 -->
<!-- Title: snakemake_dag Pages: 1 -->
<svg width="692pt" height="620pt"
 viewBox="0.00 0.00 692.00 620.00" xmlns="http://www.w3.org/2000/svg" xmlns:xlink="http://www.w3.org/1999/xlink">
<g id="graph0" class="graph" transform="scale(1 1) rotate(0) translate(4 616)">
<title>snakemake_dag</title>
<polygon fill="#ffffff" stroke="transparent" points="-4,4 -4,-616 688,-616 688,4 -4,4"/>
<!-- 0 -->
<g id="node1" class="node">
<title>0</title>
<path fill="none" stroke="#56d863" stroke-width="2" stroke-dasharray="5,2" d="M342.5,-36C342.5,-36 312.5,-36 312.5,-36 306.5,-36 300.5,-30 300.5,-24 300.5,-24 300.5,-12 300.5,-12 300.5,-6 306.5,0 312.5,0 312.5,0 342.5,0 342.5,0 348.5,0 354.5,-6 354.5,-12 354.5,-12 354.5,-24 354.5,-24 354.5,-30 348.5,-36 342.5,-36"/>
<text text-anchor="middle" x="327.5" y="-15.5" font-family="sans" font-size="10.00" fill="#000000">all</text>
</g>
<!-- 1 -->
<g id="node2" class="node">
<title>1</title>
<path fill="none" stroke="#68d856" stroke-width="2" stroke-dasharray="5,2" d="M625,-108C625,-108 534,-108 534,-108 528,-108 522,-102 522,-96 522,-96 522,-84 522,-84 522,-78 528,-72 534,-72 534,-72 625,-72 625,-72 631,-72 637,-78 637,-84 637,-84 637,-96 637,-96 637,-102 631,-108 625,-108"/>
<text text-anchor="middle" x="579.5" y="-87.5" font-family="sans" font-size="10.00" fill="#000000">test_synthetic_pairs</text>
</g>
<!-- 1&#45;&gt;0 -->
<g id="edge1" class="edge">
<title>1&#45;&gt;0</title>
<path fill="none" stroke="#c0c0c0" stroke-width="2" d="M521.6861,-73.4817C473.2247,-59.6356 405.5059,-40.2874 364.1786,-28.4796"/>
<polygon fill="#c0c0c0" stroke="#c0c0c0" stroke-width="2" points="365.0966,-25.1019 354.5198,-25.7199 363.1735,-31.8326 365.0966,-25.1019"/>
</g>
<!-- 2 -->
<g id="node3" class="node">
<title>2</title>
<path fill="none" stroke="#5673d8" stroke-width="2" stroke-dasharray="5,2" d="M129,-108C129,-108 12,-108 12,-108 6,-108 0,-102 0,-96 0,-96 0,-84 0,-84 0,-78 6,-72 12,-72 12,-72 129,-72 129,-72 135,-72 141,-78 141,-84 141,-84 141,-96 141,-96 141,-102 135,-108 129,-108"/>
<text text-anchor="middle" x="70.5" y="-87.5" font-family="sans" font-size="10.00" fill="#000000">generate_summary_plots</text>
</g>
<!-- 2&#45;&gt;0 -->
<g id="edge2" class="edge">
<title>2&#45;&gt;0</title>
<path fill="none" stroke="#c0c0c0" stroke-width="2" d="M135.0202,-71.9243C184.092,-58.1766 249.8764,-39.7467 290.4385,-28.383"/>
<polygon fill="#c0c0c0" stroke="#c0c0c0" stroke-width="2" points="291.4969,-31.7213 300.1819,-25.6533 289.6084,-24.9808 291.4969,-31.7213"/>
</g>
<!-- 3 -->
<g id="node4" class="node">
<title>3</title>
<path fill="none" stroke="#d89556" stroke-width="2" stroke-dasharray="5,2" d="M491.5,-108C491.5,-108 367.5,-108 367.5,-108 361.5,-108 355.5,-102 355.5,-96 355.5,-96 355.5,-84 355.5,-84 355.5,-78 361.5,-72 367.5,-72 367.5,-72 491.5,-72 491.5,-72 497.5,-72 503.5,-78 503.5,-84 503.5,-84 503.5,-96 503.5,-96 503.5,-102 497.5,-108 491.5,-108"/>
<text text-anchor="middle" x="429.5" y="-87.5" font-family="sans" font-size="10.00" fill="#000000">generate_vulcanspot_plots</text>
</g>
<!-- 3&#45;&gt;0 -->
<g id="edge3" class="edge">
<title>3&#45;&gt;0</title>
<path fill="none" stroke="#c0c0c0" stroke-width="2" d="M403.7611,-71.8314C390.9563,-62.7927 375.3091,-51.7476 361.5281,-42.0198"/>
<polygon fill="#c0c0c0" stroke="#c0c0c0" stroke-width="2" points="363.4188,-39.0703 353.2307,-36.1628 359.382,-44.7891 363.4188,-39.0703"/>
</g>
<!-- 4 -->
<g id="node5" class="node">
<title>4</title>
<path fill="none" stroke="#56d8c1" stroke-width="2" stroke-dasharray="5,2" d="M287.5,-108C287.5,-108 171.5,-108 171.5,-108 165.5,-108 159.5,-102 159.5,-96 159.5,-96 159.5,-84 159.5,-84 159.5,-78 165.5,-72 171.5,-72 171.5,-72 287.5,-72 287.5,-72 293.5,-72 299.5,-78 299.5,-84 299.5,-84 299.5,-96 299.5,-96 299.5,-102 293.5,-108 287.5,-108"/>
<text text-anchor="middle" x="229.5" y="-87.5" font-family="sans" font-size="10.00" fill="#000000">generate_pandrugs_plots</text>
</g>
<!-- 4&#45;&gt;0 -->
<g id="edge4" class="edge">
<title>4&#45;&gt;0</title>
<path fill="none" stroke="#c0c0c0" stroke-width="2" d="M254.2295,-71.8314C266.4162,-62.8779 281.2823,-51.9558 294.4312,-42.2955"/>
<polygon fill="#c0c0c0" stroke="#c0c0c0" stroke-width="2" points="296.7918,-44.9042 302.7784,-36.1628 292.6473,-39.263 296.7918,-44.9042"/>
</g>
<!-- 5 -->
<g id="node6" class="node">
<title>5</title>
<path fill="none" stroke="#56d8a2" stroke-width="2" stroke-dasharray="5,2" d="M371.5,-180C371.5,-180 283.5,-180 283.5,-180 277.5,-180 271.5,-174 271.5,-168 271.5,-168 271.5,-156 271.5,-156 271.5,-150 277.5,-144 283.5,-144 283.5,-144 371.5,-144 371.5,-144 377.5,-144 383.5,-150 383.5,-156 383.5,-156 383.5,-168 383.5,-168 383.5,-174 377.5,-180 371.5,-180"/>
<text text-anchor="middle" x="327.5" y="-159.5" font-family="sans" font-size="10.00" fill="#000000">generate_summary</text>
</g>
<!-- 5&#45;&gt;0 -->
<g id="edge5" class="edge">
<title>5&#45;&gt;0</title>
<path fill="none" stroke="#c0c0c0" stroke-width="2" d="M327.5,-143.7623C327.5,-119.201 327.5,-75.2474 327.5,-46.3541"/>
<polygon fill="#c0c0c0" stroke="#c0c0c0" stroke-width="2" points="331.0001,-46.0896 327.5,-36.0896 324.0001,-46.0897 331.0001,-46.0896"/>
</g>
<!-- 5&#45;&gt;1 -->
<g id="edge7" class="edge">
<title>5&#45;&gt;1</title>
<path fill="none" stroke="#c0c0c0" stroke-width="2" d="M383.7401,-145.9314C421.6647,-135.0958 471.9017,-120.7424 511.9882,-109.2891"/>
<polygon fill="#c0c0c0" stroke="#c0c0c0" stroke-width="2" points="513.0306,-112.6314 521.6843,-106.5188 511.1075,-105.9007 513.0306,-112.6314"/>
</g>
<!-- 5&#45;&gt;2 -->
<g id="edge8" class="edge">
<title>5&#45;&gt;2</title>
<path fill="none" stroke="#c0c0c0" stroke-width="2" d="M271.4178,-146.2883C234.305,-135.8909 185.2261,-122.1412 144.866,-110.834"/>
<polygon fill="#c0c0c0" stroke="#c0c0c0" stroke-width="2" points="145.6455,-107.4177 135.072,-108.0902 143.7571,-114.1582 145.6455,-107.4177"/>
</g>
<!-- 5&#45;&gt;3 -->
<g id="edge9" class="edge">
<title>5&#45;&gt;3</title>
<path fill="none" stroke="#c0c0c0" stroke-width="2" d="M353.2389,-143.8314C366.0437,-134.7927 381.6909,-123.7476 395.4719,-114.0198"/>
<polygon fill="#c0c0c0" stroke="#c0c0c0" stroke-width="2" points="397.618,-116.7891 403.7693,-108.1628 393.5812,-111.0703 397.618,-116.7891"/>
</g>
<!-- 5&#45;&gt;4 -->
<g id="edge11" class="edge">
<title>5&#45;&gt;4</title>
<path fill="none" stroke="#c0c0c0" stroke-width="2" d="M302.7705,-143.8314C290.5838,-134.8779 275.7177,-123.9558 262.5688,-114.2955"/>
<polygon fill="#c0c0c0" stroke="#c0c0c0" stroke-width="2" points="264.3527,-111.263 254.2216,-108.1628 260.2082,-116.9042 264.3527,-111.263"/>
</g>
<!-- 6 -->
<g id="node7" class="node">
<title>6</title>
<path fill="none" stroke="#88d856" stroke-width="2" stroke-dasharray="5,2" d="M556.5,-324C556.5,-324 442.5,-324 442.5,-324 436.5,-324 430.5,-318 430.5,-312 430.5,-312 430.5,-300 430.5,-300 430.5,-294 436.5,-288 442.5,-288 442.5,-288 556.5,-288 556.5,-288 562.5,-288 568.5,-294 568.5,-300 568.5,-300 568.5,-312 568.5,-312 568.5,-318 562.5,-324 556.5,-324"/>
<text text-anchor="middle" x="499.5" y="-303.5" font-family="sans" font-size="10.00" fill="#000000">rebuild_vulcan_database</text>
</g>
<!-- 6&#45;&gt;1 -->
<g id="edge6" class="edge">
<title>6&#45;&gt;1</title>
<path fill="none" stroke="#c0c0c0" stroke-width="2" d="M506.1832,-287.9555C520.1831,-250.1556 552.6665,-162.4506 569.2939,-117.5564"/>
<polygon fill="#c0c0c0" stroke="#c0c0c0" stroke-width="2" points="572.5885,-118.7382 572.7796,-108.1451 566.0243,-116.3069 572.5885,-118.7382"/>
</g>
<!-- 6&#45;&gt;3 -->
<g id="edge10" class="edge">
<title>6&#45;&gt;3</title>
<path fill="none" stroke="#c0c0c0" stroke-width="2" d="M493.6522,-287.9555C481.428,-250.235 453.0987,-162.8188 438.5222,-117.8399"/>
<polygon fill="#c0c0c0" stroke="#c0c0c0" stroke-width="2" points="441.7928,-116.579 435.3803,-108.1451 435.1338,-118.737 441.7928,-116.579"/>
</g>
<!-- 7 -->
<g id="node8" class="node">
<title>7</title>
<path fill="none" stroke="#9fd856" stroke-width="2" stroke-dasharray="5,2" d="M379.5,-252C379.5,-252 275.5,-252 275.5,-252 269.5,-252 263.5,-246 263.5,-240 263.5,-240 263.5,-228 263.5,-228 263.5,-222 269.5,-216 275.5,-216 275.5,-216 379.5,-216 379.5,-216 385.5,-216 391.5,-222 391.5,-228 391.5,-228 391.5,-240 391.5,-240 391.5,-246 385.5,-252 379.5,-252"/>
<text text-anchor="middle" x="327.5" y="-231.5" font-family="sans" font-size="10.00" fill="#000000">vulcanspot_annotation</text>
</g>
<!-- 6&#45;&gt;7 -->
<g id="edge14" class="edge">
<title>6&#45;&gt;7</title>
<path fill="none" stroke="#c0c0c0" stroke-width="2" d="M456.0971,-287.8314C432.9909,-278.159 404.3962,-266.1891 380.0423,-255.9944"/>
<polygon fill="#c0c0c0" stroke="#c0c0c0" stroke-width="2" points="381.1667,-252.6709 370.5908,-252.038 378.4637,-259.128 381.1667,-252.6709"/>
</g>
<!-- 7&#45;&gt;5 -->
<g id="edge12" class="edge">
<title>7&#45;&gt;5</title>
<path fill="none" stroke="#c0c0c0" stroke-width="2" d="M327.5,-215.8314C327.5,-208.131 327.5,-198.9743 327.5,-190.4166"/>
<polygon fill="#c0c0c0" stroke="#c0c0c0" stroke-width="2" points="331.0001,-190.4132 327.5,-180.4133 324.0001,-190.4133 331.0001,-190.4132"/>
</g>
<!-- 8 -->
<g id="node9" class="node">
<title>8</title>
<path fill="none" stroke="#56d0d8" stroke-width="2" stroke-dasharray="5,2" d="M400.5,-324C400.5,-324 254.5,-324 254.5,-324 248.5,-324 242.5,-318 242.5,-312 242.5,-312 242.5,-300 242.5,-300 242.5,-294 248.5,-288 254.5,-288 254.5,-288 400.5,-288 400.5,-288 406.5,-288 412.5,-294 412.5,-300 412.5,-300 412.5,-312 412.5,-312 412.5,-318 406.5,-324 400.5,-324"/>
<text text-anchor="middle" x="327.5" y="-303.5" font-family="sans" font-size="10.00" fill="#000000">check_gain_of_function_events</text>
</g>
<!-- 8&#45;&gt;7 -->
<g id="edge13" class="edge">
<title>8&#45;&gt;7</title>
<path fill="none" stroke="#c0c0c0" stroke-width="2" d="M327.5,-287.8314C327.5,-280.131 327.5,-270.9743 327.5,-262.4166"/>
<polygon fill="#c0c0c0" stroke="#c0c0c0" stroke-width="2" points="331.0001,-262.4132 327.5,-252.4133 324.0001,-262.4133 331.0001,-262.4132"/>
</g>
<!-- 9 -->
<g id="node10" class="node">
<title>9</title>
<path fill="none" stroke="#d87556" stroke-width="2" stroke-dasharray="5,2" d="M262.5,-540C262.5,-540 148.5,-540 148.5,-540 142.5,-540 136.5,-534 136.5,-528 136.5,-528 136.5,-516 136.5,-516 136.5,-510 142.5,-504 148.5,-504 148.5,-504 262.5,-504 262.5,-504 268.5,-504 274.5,-510 274.5,-516 274.5,-516 274.5,-528 274.5,-528 274.5,-534 268.5,-540 262.5,-540"/>
<text text-anchor="middle" x="205.5" y="-519.5" font-family="sans" font-size="10.00" fill="#000000">rebuild_gscore_database</text>
</g>
<!-- 9&#45;&gt;7 -->
<g id="edge15" class="edge">
<title>9&#45;&gt;7</title>
<path fill="none" stroke="#c0c0c0" stroke-width="2" d="M202.5409,-503.7373C196.7486,-461.73 188.1408,-356.5985 233.5,-288 242.0153,-275.1219 254.7252,-264.9524 268.0671,-257.0779"/>
<polygon fill="#c0c0c0" stroke="#c0c0c0" stroke-width="2" points="269.8108,-260.1134 276.8882,-252.2292 266.4389,-253.979 269.8108,-260.1134"/>
</g>
<!-- 10 -->
<g id="node11" class="node">
<title>10</title>
<path fill="none" stroke="#d8b456" stroke-width="2" stroke-dasharray="5,2" d="M387,-468C387,-468 288,-468 288,-468 282,-468 276,-462 276,-456 276,-456 276,-444 276,-444 276,-438 282,-432 288,-432 288,-432 387,-432 387,-432 393,-432 399,-438 399,-444 399,-444 399,-456 399,-456 399,-462 393,-468 387,-468"/>
<text text-anchor="middle" x="337.5" y="-447.5" font-family="sans" font-size="10.00" fill="#000000">generate_cases_table</text>
</g>
<!-- 9&#45;&gt;10 -->
<g id="edge20" class="edge">
<title>9&#45;&gt;10</title>
<path fill="none" stroke="#c0c0c0" stroke-width="2" d="M238.8092,-503.8314C255.9273,-494.4942 276.9706,-483.016 295.2222,-473.0606"/>
<polygon fill="#c0c0c0" stroke="#c0c0c0" stroke-width="2" points="297.0985,-476.024 304.2015,-468.1628 293.7465,-469.8788 297.0985,-476.024"/>
</g>
<!-- 10&#45;&gt;8 -->
<g id="edge16" class="edge">
<title>10&#45;&gt;8</title>
<path fill="none" stroke="#c0c0c0" stroke-width="2" d="M336.2335,-431.7623C334.5279,-407.201 331.4755,-363.2474 329.469,-334.3541"/>
<polygon fill="#c0c0c0" stroke="#c0c0c0" stroke-width="2" points="332.9407,-333.8231 328.7562,-324.0896 325.9575,-334.3081 332.9407,-333.8231"/>
</g>
<!-- 11 -->
<g id="node12" class="node">
<title>11</title>
<path fill="none" stroke="#56d882" stroke-width="2" stroke-dasharray="5,2" d="M469.5,-396C469.5,-396 367.5,-396 367.5,-396 361.5,-396 355.5,-390 355.5,-384 355.5,-384 355.5,-372 355.5,-372 355.5,-366 361.5,-360 367.5,-360 367.5,-360 469.5,-360 469.5,-360 475.5,-360 481.5,-366 481.5,-372 481.5,-372 481.5,-384 481.5,-384 481.5,-390 475.5,-396 469.5,-396"/>
<text text-anchor="middle" x="418.5" y="-375.5" font-family="sans" font-size="10.00" fill="#000000">perform_cnv_diff_expr</text>
</g>
<!-- 10&#45;&gt;11 -->
<g id="edge21" class="edge">
<title>10&#45;&gt;11</title>
<path fill="none" stroke="#c0c0c0" stroke-width="2" d="M357.9397,-431.8314C367.8205,-423.0485 379.8324,-412.3712 390.545,-402.8489"/>
<polygon fill="#c0c0c0" stroke="#c0c0c0" stroke-width="2" points="392.918,-405.4224 398.0668,-396.1628 388.2674,-400.1906 392.918,-405.4224"/>
</g>
<!-- 11&#45;&gt;8 -->
<g id="edge17" class="edge">
<title>11&#45;&gt;8</title>
<path fill="none" stroke="#c0c0c0" stroke-width="2" d="M395.5369,-359.8314C384.3285,-350.9632 370.6791,-340.1637 358.5561,-330.5718"/>
<polygon fill="#c0c0c0" stroke="#c0c0c0" stroke-width="2" points="360.4697,-327.6229 350.4558,-324.1628 356.1263,-333.1125 360.4697,-327.6229"/>
</g>
<!-- 12 -->
<g id="node13" class="node">
<title>12</title>
<path fill="none" stroke="#56b1d8" stroke-width="2" stroke-dasharray="5,2" d="M370,-540C370,-540 305,-540 305,-540 299,-540 293,-534 293,-528 293,-528 293,-516 293,-516 293,-510 299,-504 305,-504 305,-504 370,-504 370,-504 376,-504 382,-510 382,-516 382,-516 382,-528 382,-528 382,-534 376,-540 370,-540"/>
<text text-anchor="middle" x="337.5" y="-525" font-family="sans" font-size="10.00" fill="#000000">filter_maf_files</text>
<text text-anchor="middle" x="337.5" y="-514" font-family="sans" font-size="10.00" fill="#000000">project: ACC</text>
</g>
<!-- 12&#45;&gt;10 -->
<g id="edge18" class="edge">
<title>12&#45;&gt;10</title>
<path fill="none" stroke="#c0c0c0" stroke-width="2" d="M337.5,-503.8314C337.5,-496.131 337.5,-486.9743 337.5,-478.4166"/>
<polygon fill="#c0c0c0" stroke="#c0c0c0" stroke-width="2" points="341.0001,-478.4132 337.5,-468.4133 334.0001,-478.4133 341.0001,-478.4132"/>
</g>
<!-- 13 -->
<g id="node14" class="node">
<title>13</title>
<path fill="none" stroke="#d85656" stroke-width="2" stroke-dasharray="5,2" d="M475,-540C475,-540 412,-540 412,-540 406,-540 400,-534 400,-528 400,-528 400,-516 400,-516 400,-510 406,-504 412,-504 412,-504 475,-504 475,-504 481,-504 487,-510 487,-516 487,-516 487,-528 487,-528 487,-534 481,-540 475,-540"/>
<text text-anchor="middle" x="443.5" y="-525" font-family="sans" font-size="10.00" fill="#000000">filter_cnv_files</text>
<text text-anchor="middle" x="443.5" y="-514" font-family="sans" font-size="10.00" fill="#000000">project: ACC</text>
</g>
<!-- 13&#45;&gt;10 -->
<g id="edge19" class="edge">
<title>13&#45;&gt;10</title>
<path fill="none" stroke="#c0c0c0" stroke-width="2" d="M416.7517,-503.8314C403.4447,-494.7927 387.184,-483.7476 372.8625,-474.0198"/>
<polygon fill="#c0c0c0" stroke="#c0c0c0" stroke-width="2" points="374.4785,-470.8864 364.2397,-468.1628 370.5453,-476.677 374.4785,-470.8864"/>
</g>
<!-- 14 -->
<g id="node15" class="node">
<title>14</title>
<path fill="none" stroke="#5692d8" stroke-width="2" stroke-dasharray="5,2" d="M588,-540C588,-540 517,-540 517,-540 511,-540 505,-534 505,-528 505,-528 505,-516 505,-516 505,-510 511,-504 517,-504 517,-504 588,-504 588,-504 594,-504 600,-510 600,-516 600,-516 600,-528 600,-528 600,-534 594,-540 588,-540"/>
<text text-anchor="middle" x="552.5" y="-525" font-family="sans" font-size="10.00" fill="#000000">filter_mrna_files</text>
<text text-anchor="middle" x="552.5" y="-514" font-family="sans" font-size="10.00" fill="#000000">project: ACC</text>
</g>
<!-- 14&#45;&gt;11 -->
<g id="edge22" class="edge">
<title>14&#45;&gt;11</title>
<path fill="none" stroke="#c0c0c0" stroke-width="2" d="M535.5288,-503.7623C511.9684,-478.4436 469.2322,-432.5182 442.4386,-403.7251"/>
<polygon fill="#c0c0c0" stroke="#c0c0c0" stroke-width="2" points="444.708,-401.026 435.3334,-396.0896 439.5835,-405.7946 444.708,-401.026"/>
</g>
<!-- 15 -->
<g id="node16" class="node">
<title>15</title>
<path fill="none" stroke="#d8d356" stroke-width="2" stroke-dasharray="5,2" d="M510.5,-612C510.5,-612 376.5,-612 376.5,-612 370.5,-612 364.5,-606 364.5,-600 364.5,-600 364.5,-588 364.5,-588 364.5,-582 370.5,-576 376.5,-576 376.5,-576 510.5,-576 510.5,-576 516.5,-576 522.5,-582 522.5,-588 522.5,-588 522.5,-600 522.5,-600 522.5,-606 516.5,-612 510.5,-612"/>
<text text-anchor="middle" x="443.5" y="-591.5" font-family="sans" font-size="10.00" fill="#000000">rebuild_snp_array_dictionary</text>
</g>
<!-- 15&#45;&gt;13 -->
<g id="edge23" class="edge">
<title>15&#45;&gt;13</title>
<path fill="none" stroke="#c0c0c0" stroke-width="2" d="M443.5,-575.8314C443.5,-568.131 443.5,-558.9743 443.5,-550.4166"/>
<polygon fill="#c0c0c0" stroke="#c0c0c0" stroke-width="2" points="447.0001,-550.4132 443.5,-540.4133 440.0001,-550.4133 447.0001,-550.4132"/>
</g>
<!-- 15&#45;&gt;14 -->
<g id="edge25" class="edge">
<title>15&#45;&gt;14</title>
<path fill="none" stroke="#c0c0c0" stroke-width="2" d="M471.0053,-575.8314C484.818,-566.7074 501.7256,-555.539 516.5529,-545.7449"/>
<polygon fill="#c0c0c0" stroke="#c0c0c0" stroke-width="2" points="518.5886,-548.5949 525.0035,-540.1628 514.7304,-542.7541 518.5886,-548.5949"/>
</g>
<!-- 16 -->
<g id="node17" class="node">
<title>16</title>
<path fill="none" stroke="#bed856" stroke-width="2" stroke-dasharray="5,2" d="M672,-612C672,-612 553,-612 553,-612 547,-612 541,-606 541,-600 541,-600 541,-588 541,-588 541,-582 547,-576 553,-576 553,-576 672,-576 672,-576 678,-576 684,-582 684,-588 684,-588 684,-600 684,-600 684,-606 678,-612 672,-612"/>
<text text-anchor="middle" x="612.5" y="-591.5" font-family="sans" font-size="10.00" fill="#000000">rebuild_rnaseq_dictionary</text>
</g>
<!-- 16&#45;&gt;14 -->
<g id="edge24" class="edge">
<title>16&#45;&gt;14</title>
<path fill="none" stroke="#c0c0c0" stroke-width="2" d="M597.3595,-575.8314C590.3783,-567.454 581.9609,-557.3531 574.3124,-548.1749"/>
<polygon fill="#c0c0c0" stroke="#c0c0c0" stroke-width="2" points="576.9351,-545.8548 567.8444,-540.4133 571.5575,-550.3362 576.9351,-545.8548"/>
</g>
</g>
</svg>
